<?xml version="1.0" encoding="UTF-8"?><svg id="Capa_1" xmlns="http://www.w3.org/2000/svg" xmlns:xlink="http://www.w3.org/1999/xlink" viewBox="0 0 486.75 291"><defs><style>.cls-1{fill:#fff;}.cls-2{fill:none;}.cls-3{fill:url(#Degradado_sin_nombre_4);}.cls-4{fill:url(#Degradado_sin_nombre_2);}.cls-5{fill:url(#Degradado_sin_nombre);}.cls-6{fill:#c1c1c1;}.cls-7{clip-path:url(#clippath);}</style><clipPath id="clippath"><rect class="cls-2" x="-973.5" width="1947" height="291"/></clipPath><linearGradient id="Degradado_sin_nombre" x1="257.5" y1="263.66" x2="257.5" y2="68.66" gradientTransform="translate(0 292) scale(1 -1)" gradientUnits="userSpaceOnUse"><stop offset="0" stop-color="#ededed"/><stop offset=".44" stop-color="#f2f2f2"/><stop offset=".89" stop-color="#fff"/></linearGradient><linearGradient id="Degradado_sin_nombre_2" x1="379.5" y1="128.89" x2="379.5" y2="57.22" gradientTransform="translate(0 292) scale(1 -1)" gradientUnits="userSpaceOnUse"><stop offset="0" stop-color="#d6d6d6"/><stop offset=".37" stop-color="#dbdbdb"/><stop offset=".84" stop-color="#ebebeb"/><stop offset="1" stop-color="#f3f3f3"/></linearGradient><linearGradient id="Degradado_sin_nombre_4" x1="-58.5" y1="99.47" x2="-58.5" y2="46.97" gradientTransform="translate(0 292) scale(1 -1)" gradientUnits="userSpaceOnUse"><stop offset="0" stop-color="#9e9e9e"/><stop offset=".33" stop-color="#a3a3a3"/><stop offset=".75" stop-color="#b3b3b3"/><stop offset="1" stop-color="#c1c1c1"/></linearGradient></defs><g class="cls-7"><rect class="cls-1" x="-973.5" width="1947" height="291"/><path class="cls-5" d="M-32.67,221.89s223.25-67.1,295.14-113.32c71.89-46.23,146.77-86.22,171.48-81.13,24.71,5.08,143.03,67.7,204.43,109.46,61.4,41.75,122.57,70.08,158.64,71.58,36.06,1.49,129.23,28.12,129.23,28.12l47.25,11.4H-458.5s58.99-56.97,138.38-78.29c79.38-21.31,107.83-25.35,152.76-5.96,44.93,19.39,92.67,55.17,134.69,58.16h0Z"/><path class="cls-4" d="M-142.53,246.84c-10.11-8.99,7.91-36.44,18.72-41.54,11.92-5.61,35.74,1.12,42.72,7.3,4.94-.57,6.63-.57,13.45,3.93,1.7-3.36,11.92-32.56,28.94-29.19,17.02,3.36,13.31,20.64,13.31,20.64,0,0,.32-17.28,20.73-17.28,18.72,0,34.04,6.7,31.48,15.13-2.56,8.43-7.66-29.74,24.68-27.48,32.35,2.24,39.15,19.08,37.45,22.46-1.69,3.36,5.11-12.35,20.43-8.99,15.32,3.37,17.02,24.7,17.02,24.7,0,0,.52-47.66,42.55-46.04,28.94,1.12,28.94,28.07,28.94,28.07,0,0-1.7-42.66,27.23-41.54,28.94,1.12,39.14,21.34,40.85,21.34s20.43-17.96,44.25-4.49c23.84,13.47,20.99,22.46,20.99,22.46,0,0,5.1-40.66,40.57-37.73,35.48,2.93,25.38,31.68,25.38,31.68,0,0,8.39-11.91,23.71-8.53,21.54,4.74,27.23,24.7,27.23,24.7,0,0,15.13-25.95,51.06-23.58,17.02,1.12,28.94,30.31,28.94,30.31,0,0,8.51-28.96,35.74-22.9,27.22,6.07,56.16,37.49,56.16,37.49,0,0,7.22-41.37,28.94-40.42,21.72.96,32.35,22.46,32.35,22.46,0,0,20.42-29.19,51.06-22.46,30.63,6.74,38.43,37.6,38.43,37.6,0,0,12.62-21.89,27.94-18.52,15.33,3.36,21.5,21.34,21.5,21.34,0,0-4.77-50.52,17.65-43.78,22.41,6.74,22.12,33.69,22.12,33.69,0,0,17.42-14.59,32.35-4.49,14.92,10.11,11.91,34.81,11.91,34.81l-1046.75-1.12-.03-.04Z"/><path class="cls-3" d="M851.99,237.67v2.97h-11.99v-2.97h-1.5v2.97h-11.98v-2.97h-1.5v2.97h-13.48v-2.97h-1.5v2.97h-11.98v-2.97h-1.5v2.97h-11.98v-2.97h-1.5v2.97h-11.98v-2.97h-1.51v2.97h-13.48v-2.97h-1.5v4.44h-7.49v-51.87h-3s-3-8.9-10.48-8.9-10.48,8.9-10.48,8.9h-3v51.87h-20.98v-20.57l5.02.03-15.04-21.64-20.59-7.99-20.63,7.81-15.13,21.51,4.97.03v24.5h-55.13v-24.37c5.56-.59,9.89-5.24,9.89-10.9,0-6.05-4.96-10.96-11.09-10.96s-11.09,4.91-11.09,10.96c0,5.67,4.34,10.31,9.9,10.9v24.37h-11.53v-11.94c2.05-.52,3.56-2.35,3.56-4.54,0-2.6-2.13-4.7-4.75-4.7s-4.76,2.1-4.76,4.7c0,2.19,1.52,4.01,3.56,4.54v11.94h-13.02v-26.71c6.43-.59,11.48-5.95,11.48-12.47,0-6.92-5.67-12.53-12.66-12.53s-12.66,5.61-12.66,12.53c0,6.53,5.04,11.88,11.48,12.47v26.71h-14.14v-7.98c3.16-.55,5.55-3.26,5.55-6.54,0-3.67-3.02-6.66-6.73-6.66s-6.73,2.98-6.73,6.66c0,3.27,2.39,5.98,5.55,6.54v7.98h-9.42v-19.68c4.9-.58,8.71-4.7,8.71-9.71,0-5.4-4.43-9.79-9.9-9.79s-9.89,4.39-9.89,9.79c0,5.01,3.81,9.13,8.71,9.71v19.68h-56.49v-16.42h3.71l-16.88-11.48v-3.38l-4.22-4.96-4.75,4.96v3.38l-16.35,11.48h3.7v16.42h-11.43v-6.56s6.16.05,6.16-3.6-6.85-16.17-7.91-16.17-7.38,11.87-7.38,16.17c0,3.66,6.33,3.6,6.33,3.6l-.09,6.56h-12.58v-19.03h2.19l-9.04-13.57h-17.4l-10.02,13.57h2.11l.09,19.31h-26.61v-9.64h2.8l-20.04-14.08-20.96,14.08h3.03v9.64h-23.12v-1.04l.02-15.65h3.7l-16.88-11.48v-3.38l-4.22-4.96-4.74,4.96v3.38l-16.35,11.48h3.7v16.69h-11.42v-6.83s6.15.05,6.15-3.6-6.85-16.17-7.91-16.17-7.38,11.87-7.38,16.17c0,3.66,6.33,3.6,6.33,3.6l-.09,6.83h-12.56v-19.31h2.18l-9.03-13.57h-17.4l-10.02,13.57h2.11l.08,19.31h-26.6v-17.22h2.79l-20.04-14.08-20.97,14.08h3.03v17.22h-15.84v-2.39h-3.31v-2.04h-3v-15.63h-13.49v14.95h-1.5v-6.12h-8.99v6.28h-11.98v-4.52h-26.96v-21.48h-14.99v-2.72h-4.48v2.21h-3.01v12.24h-2.53v-1.53h-4.96v18.52H7.97v-36.36H.48v-6.97h-7.49v6.12h-11.98v37.38h-18v-18.52h-4.29v3.74h-6.18v14.62h-2.85v-.37h-8.24v-9.79h-13.19v-16.32h-11.55v22.84h-39.58v-2.35h-11.55v-13.28h-16.5v-3.74h-1.65v3.74h-13.19v14h-14.84v-27.74h-13.19v9.8h-24.74v-3.29h-3.29v14.31h-14.84v-20.85h-14.84v21.97h-14.84v-14.03h-19.79v20.02h-3.29v3.04h-6.6v-18.95h-13.19v-28.37h-14.84v35.11h-28.03v-21.51h-23.09v21.89h-6.6v-9.54h-4.95v-16.14l-4.95-4.9-.4-6.72h-1.31v6.65l-4.88,4.83v16.09h-4.95v23.01h-9.9v-38.92h-3.29v-22.07h-3.29v-12.91h-3.29v-10.77l-3.67-8.13v-13.46h-2.93v13.43l-4.95,8.83v10.75h-3.29v13.05h-1.65v22.84h-1.65v27.81h-3.29v-26.17h-18.14v13.26h-6.6v-32.84h-19.79v55.66h-1.65v-70.34h-14.84v-5.05h-8.24v5.05h-6.6v35.89h-3.29v19.58h-16.5v-52.65h-13.19v59.19h-6.6v-27.38h-4.95v-5.25h-14.84v22.84h-6.6v-34.27h-21.08v46.96l-11.9-11.77v-30.29h-13.19v36.84h-4.95v-56.88h-18.14v47.76h-16.5v19.76h-4.95v-32.82h-4.95v32.63h-4.95v-21.51h-6.6v21.51h-8.24v-11.22h-4.8v-39.36h-10.05v38.61h-11.55v-16.28h-21.45v-9.28h-19.79v8.15h-8.24v24.31h-9.9v4.68h-3.29v-2.24h-3.29v-17.22h-14.84v16.46h-1.65v-6.74h-9.9v6.92h-13.19v-4.98h-29.69v-23.64h-16.5v-3h-4.95v2.43h-3.29v13.46h-2.78v-1.68h-5.46v20.39h-9.9v-40.03h-8.24v-7.67h-8.24v6.74h-13.19v41.16h-19.75v-20.39h-4.73v4.11h-6.8v16.09h-3.29v4.79H756.13v-5.93h13.48v5.93h1.5v-5.93h11.98v5.93h1.5v-5.93h11.98v5.93h1.5v-5.93h11.98v5.93h1.5v-5.93h13.49v5.93h1.5v-5.93h11.98v5.93h1.5v-5.93h11.98v5.93h1.5v-10.37h-1.5v.04Z"/><rect class="cls-6" x="-973.5" y="248" width="1947" height="43"/></g></svg>