<?xml version="1.0" encoding="UTF-8"?>
<svg id="Capa_1" data-name="Capa 1" xmlns="http://www.w3.org/2000/svg" xmlns:xlink="http://www.w3.org/1999/xlink" viewBox="0 0 486.8 203">
  <defs>
    <style>
      .cls-1 {
        fill: url(#Degradado_sin_nombre_11);
      }

      .cls-2 {
        fill: #c1c1c1;
      }

      .cls-3 {
        fill: url(#Degradado_sin_nombre_9);
      }

      .cls-4 {
        fill: url(#Degradado_sin_nombre_8);
      }

      .cls-5 {
        fill: url(#Degradado_sin_nombre_12);
      }
    </style>
    <linearGradient id="Degradado_sin_nombre_12" data-name="Degradado sin nombre 12" x1="743.24" y1="2.47" x2="743.24" y2="142.29" gradientUnits="userSpaceOnUse">
      <stop offset=".09" stop-color="#e2e2e2"/>
      <stop offset=".89" stop-color="#f4f4f4"/>
    </linearGradient>
    <linearGradient id="Degradado_sin_nombre_11" data-name="Degradado sin nombre 11" x1="889.92" y1="74.65" x2="889.92" y2="146.71" gradientUnits="userSpaceOnUse">
      <stop offset="0" stop-color="#c6c6c6"/>
      <stop offset=".28" stop-color="#cbcbcb"/>
      <stop offset=".64" stop-color="#dbdbdb"/>
      <stop offset="1" stop-color="#f3f3f3"/>
    </linearGradient>
    <linearGradient id="Degradado_sin_nombre_9" data-name="Degradado sin nombre 9" x1="-55.9" y1="12.55" x2="-55.9" y2="145.19" gradientUnits="userSpaceOnUse">
      <stop offset="0" stop-color="#d6d6d6"/>
      <stop offset=".44" stop-color="#d8d8d8"/>
      <stop offset=".73" stop-color="#e1e1e1"/>
      <stop offset=".96" stop-color="#f0f0f0"/>
      <stop offset="1" stop-color="#f3f3f3"/>
    </linearGradient>
    <linearGradient id="Degradado_sin_nombre_8" data-name="Degradado sin nombre 8" x1="426.4" y1="112.75" x2="426.4" y2="157.39" gradientUnits="userSpaceOnUse">
      <stop offset="0" stop-color="#9e9e9e"/>
      <stop offset=".33" stop-color="#a3a3a3"/>
      <stop offset=".75" stop-color="#b3b3b3"/>
      <stop offset="1" stop-color="#c1c1c1"/>
    </linearGradient>
  </defs>
  <path class="cls-5" d="M452.6,141.25s223.61-48.11,295.62-81.26C820.22,26.84,895.22-1.83,919.98,1.81s143.26,48.55,204.76,78.49,136.54,6.13,172.66,7.2c36.12,1.07,115.67,64.28,115.67,64.28l47.33,8.18H26.07s59.1-59.85,138.6-75.13c79.51-15.28,108.01-18.18,153.01-4.28,45,13.9,92.82,58.56,134.91,60.7Z"/>
  <path class="cls-1" d="M342.56,158.83c-10.61-9.03,8.29-36.64,19.63-41.76,12.49-5.64,37.48,1.13,44.8,7.34,5.17-.56,6.96-.56,14.1,3.95,1.78-3.39,12.49-32.73,30.34-29.35,17.85,3.39,13.95,20.75,13.95,20.75,0,0,.33-17.37,21.75-17.37,19.63,0,35.69,6.74,33.02,15.22-2.68,8.48-8.03-29.89,25.88-27.64,33.91,2.26,41.05,19.19,39.26,22.57-1.78,3.39,5.35-12.42,21.42-9.03,16.06,3.39,17.85,24.83,17.85,24.83,0,0,.54-47.92,44.62-46.28,30.34,1.13,30.34,28.22,30.34,28.22,0,0-1.78-42.89,28.56-41.76,30.34,1.13,41.05,21.45,42.83,21.45s21.42-18.06,46.4-4.51c24.99,13.54,22,22.57,22,22.57,0,0,5.35-40.89,42.54-37.94,37.19,2.95,26.61,31.84,26.61,31.84,0,0,8.8-11.97,24.86-8.58,22.59,4.76,28.56,24.83,28.56,24.83,0,0,15.87-26.09,53.54-23.7,17.85,1.13,30.34,30.48,30.34,30.48,0,0,8.92-29.12,37.48-23.02,28.56,6.09,58.89,37.7,58.89,37.7,0,0,7.57-41.59,30.34-40.63,22.77,.96,33.91,22.57,33.91,22.57,0,0,21.42-29.35,53.54-22.57,32.12,6.77,40.31,37.81,40.31,37.81,0,0,13.23-22.01,29.29-18.62,16.06,3.39,22.54,21.45,22.54,21.45,0,0-5-50.79,18.51-44.02,23.51,6.77,23.2,33.86,23.2,33.86,0,0,18.27-14.67,33.91-4.51,15.64,10.16,12.49,34.99,12.49,34.99l-1097.58-1.13Z"/>
  <path class="cls-3" d="M-284.27,152.22h-72.65v-15.88h-6.56v-32.67h-8.28v-2.87h-2.07v1.97h-7.72v-6.13h-9.19v-2.95h-17.95v2.18h-8.86v64.09H305.76v-25.58h-7.5v-6.96h-3v7.01h-13.5v-18.88h-13.5v25.6h-25.5v-31.2h-3v-8.7h-6v-3.05h-1.5v-3.32h-1.5v-4.93h-3v4.86h-1.5v3.17c0,.14-1.5,0-1.5,0v3.67h-1.5v7.03h-5.25v21.2l-2.25,1.48v-27.4h-4.5v-2.93h-16.5v-1.07h-13.5v3.01h-7.5v4.93h-4.5v-14.99h-33.5v6.25h-4.5v18.39h-4.5v18.34h-3v-24.25h-9v18.72h-10.5l-1.5-48.95h-3v1.97h-3.61v-8.87h-3.89v-3.64h-1.5v-4.52h-1.5v-9.59l-3-1.97-6-1.97v5h-1.5v9.79h-1.5v3.94h-1.5v3.9h-4.5v-1.93h-4.5v26.27h-4.5l-1.5-2.96h-16.5v2.96h-7.58v19.67l-1.42,.94v-28.49l-13.5-1.92v-19.78H2.24v-16.73H-.76v14.58H-6.76v2.94H-23.26v24.85h-6V49.18h-4.5v-8.87h-4.5v-2.49l-6-5.92v-13.8l-3-2.26V1.5h-1.5v14.62l-3,1.97v13.8l-6,5.92v2.95h-4.5v8.87h-3.75V123.97l-2.25,1.48v-57.48h-24V32.88h-3.02v-7.45h-14.32l-12.66,8.32v24.66h-19.5v75.75h-4.5v-58.05h-1.5v-8.83h-3v-12.03h-7.5v-8.76h-12v-1.92h-1.46v-4.9h-1.55v6.9h-2.99v1.95h-8.45v6.9h-3.55v11.86h-4.5v10.92h-3v38.38h-6v-31.55l-13.5-5.07v-2.26h-6v2.41l-15,3.94v24.06h-3v-1.19h-9v-2.17h-4.5v-25.47h-3v-2.14h-3v-1.44h-3v-2.5l-10.5,.09v1.88l-4.02,.23v3.32h-3.48v3.36l-4.5-.35v69.36"/>
  <path class="cls-4" d="M1338.3,149.46v3h-12v-3h-1.5v3h-12v-3h-1.5v3h-13.5v-3h-1.5v3h-12v-3h-1.5v3h-12v-3h-1.5v3h-12v-3h-1.5v3h-13.5v-3h-1.5v4.5h-7.5v-52.5h-3s-3-9-10.5-9-10.5,9-10.5,9h-3v52.5h-21v-20.83l5.03,.02-15.07-21.91-20.63-8.09-20.66,7.9-15.16,21.77,4.98,.02v24.8h-55.22v-24.67c5.57-.59,9.91-5.31,9.91-11.04,0-6.13-4.97-11.1-11.1-11.1s-11.1,4.97-11.1,11.1c0,5.73,4.34,10.44,9.91,11.04v24.67h-11.53v-12.08c2.05-.53,3.57-2.37,3.57-4.59,0-2.63-2.13-4.76-4.76-4.76s-4.76,2.13-4.76,4.76c0,2.21,1.52,4.06,3.57,4.59v12.08h-13.05v-27.04c6.45-.6,11.5-6.02,11.5-12.63,0-7.01-5.68-12.69-12.69-12.69s-12.69,5.68-12.69,12.69c0,6.61,5.05,12.03,11.5,12.63v27.04h-14.15v-8.07c3.15-.56,5.55-3.31,5.55-6.62,0-3.72-3.02-6.74-6.74-6.74s-6.74,3.02-6.74,6.74c0,3.31,2.4,6.06,5.55,6.62v8.07h-9.44v-19.92c4.91-.59,8.72-4.76,8.72-9.83,0-5.47-4.44-9.91-9.91-9.91s-9.91,4.44-9.91,9.91c0,5.07,3.81,9.25,8.72,9.83v19.92h-56.58v-.78s.01-15.84,.01-15.84h3.7l-16.9-11.62v-3.42l-4.23-5.03-4.75,5.03v3.42l-16.37,11.62h3.7v16.63h-11.44v-6.64s6.16,.05,6.16-3.65-6.87-16.37-7.92-16.37-7.39,12.02-7.39,16.37c0,3.7,6.34,3.65,6.34,3.65l-.08,6.64h-12.59v-19.27h2.18l-9.05-13.73h-17.43l-10.03,13.73h2.11l.08,19.54h-26.64v-9.76h2.8l-20.07-14.26-21,14.26h3.04v9.76h-23.14l.02-1.06v-15.84h3.7l-16.9-11.62v-3.42l-4.23-5.03-4.75,5.03v3.42l-16.37,11.62h3.7v16.9h-11.44v-6.92s6.16,.05,6.16-3.65-6.87-16.37-7.92-16.37-7.39,12.02-7.39,16.37c0,3.7,6.34,3.65,6.34,3.65l-.09,6.92h-12.59v-19.54h2.18l-9.05-13.73h-17.43l-10.04,13.73h2.11l.08,19.54h-26.64v-17.43h2.8l-20.07-14.26-21,14.26h3.04v17.43h-15.88v-2.43h-3.31v-2.06h-3v-15.82h-13.5v15.13h-1.5v-6.19h-9v6.36h-12v-4.58h-27v-21.74h-15v-2.75h-4.5v2.24h-3v12.38h-2.53v-1.55h-4.97v18.75h-9v-36.81h-7.5v-7.05h-7.5v6.19h-12v37.84h-18.02v-18.75h-4.3v3.78h-6.19v14.79h-2.86v-.37h-8.26v-9.91h-13.21v-16.52h-11.56v23.12h-39.64v-2.38h-11.56v-13.44h-16.52v-3.79h-1.65v3.79h-13.21v14.17h-14.87v-28.08h-13.21v9.93h-24.78v-3.32h-3.3v14.5h-14.87v-21.1h-14.87v22.24h-14.87v-14.2h-19.82v20.26h-3.3v3.08h-6.61v-19.18h-13.21v-28.72h-14.87v35.54h-28.08v-21.78h-23.12v22.16h-6.61v-9.66h-4.96v-16.35l-4.95-4.96-.4-6.8h-1.32v6.74l-4.89,4.89v16.29h-4.96v23.29h-9.91v-28.39h-3.3v-22.34h-3.3v-13.07h-3.3v-10.9l-3.67-8.23v-6.63h-2.94v6.6l-4.95,8.93v10.89h-3.3v13.21h-1.65v23.12h-1.65v17.14h-3.3v-26.49H21.72v13.42h-6.61v-26.24H-4.71v49.35h-1.65V90.29h-14.87v-5.11h-8.26v5.1h-6.61v30.34h-3.3v19.82h-16.52v-46.31h-13.21v52.91h-6.61v-27.72h-4.95v-5.31h-14.87v23.12h-6.61v-34.69h-21.11v47.54l-11.92-11.92v-30.67h-13.21v37.29h-4.95v-50.57h-18.17v41.35h-16.52v20.01h-4.95v-33.22h-4.95v33.03h-4.95v-21.78h-6.61v21.78h-8.26v-11.36h-4.8v-39.84h-10.07v39.08h-11.56v-16.47h-21.47v-9.39h-19.82v8.26h-8.26v24.62h-9.91v4.73h-3.3v-2.27h-3.3v-17.42h-14.87v16.66h-1.65v-6.82h-9.91v7.01h-13.21v-5.04h-29.73v-23.93h-16.52v-3.03h-4.95v2.46h-3.3v13.63h-2.79v-1.7h-5.47v20.64h-9.91v-40.52h-8.26v-7.76h-8.26v6.82h-13.21v41.66h-19.84v-20.64h-4.73v4.17h-6.82v16.29h-3.29v4.84H1242.29v-6h13.5v6h1.5v-6h12v6h1.5v-6h12v6h1.5v-6h12v6h1.5v-6h13.5v6h1.5v-6h12v6h1.5v-6h12v6h1.5v-10.5h-1.5Z"/>
  <rect class="cls-2" x="-487.6" y="159.5" width="1948" height="44"/>
</svg>