<?xml version="1.0" encoding="UTF-8"?>
<svg id="Capa_1" data-name="Capa 1" xmlns="http://www.w3.org/2000/svg" xmlns:xlink="http://www.w3.org/1999/xlink" viewBox="0 0 486.8 203">
  <defs>
    <style>
      .cls-1 {
        opacity: .6;
      }

      .cls-1, .cls-2, .cls-3, .cls-4, .cls-5 {
        fill: none;
      }

      .cls-1, .cls-2, .cls-4, .cls-5 {
        stroke: #f6a200;
        stroke-miterlimit: 10;
      }

      .cls-2 {
        opacity: .2;
      }

      .cls-2, .cls-5 {
        isolation: isolate;
      }

      .cls-6 {
        fill: #c1c1c1;
      }

      .cls-5 {
        opacity: .4;
      }

      .cls-7 {
        fill: url(#Degradado_sin_nombre_9);
      }

      .cls-8 {
        fill: #efefef;
      }

      .cls-9 {
        fill: url(#Degradado_sin_nombre_8);
      }

      .cls-10 {
        fill: #9e9e9e;
      }
    </style>
    <linearGradient id="Degradado_sin_nombre_9" data-name="Degradado sin nombre 9" x1="431.1" y1="12.55" x2="431.1" y2="145.19" gradientUnits="userSpaceOnUse">
      <stop offset="0" stop-color="#d6d6d6"/>
      <stop offset=".44" stop-color="#d8d8d8"/>
      <stop offset=".73" stop-color="#e1e1e1"/>
      <stop offset=".96" stop-color="#f0f0f0"/>
      <stop offset="1" stop-color="#f3f3f3"/>
    </linearGradient>
    <linearGradient id="Degradado_sin_nombre_8" data-name="Degradado sin nombre 8" x1="913.4" y1="112.75" x2="913.4" y2="157.39" gradientUnits="userSpaceOnUse">
      <stop offset="0" stop-color="#9e9e9e"/>
      <stop offset=".33" stop-color="#a3a3a3"/>
      <stop offset=".75" stop-color="#b3b3b3"/>
      <stop offset="1" stop-color="#c1c1c1"/>
    </linearGradient>
  </defs>
  <path class="cls-8" d="M283.35,156.25s-80.71-63.17-112.96-51.52c-32.25,11.65-53.75,9.97-66.32,13.34-12.57,3.37-36.39,8.59-65.83,25.91-29.44,17.33-34.65,15.95-34.65,15.95H295.42"/>
  <circle class="cls-2" cx="162.47" cy="26.76" r="23.63"/>
  <circle class="cls-5" cx="162.47" cy="26.76" r="13.23"/>
  <circle class="cls-1" cx="162.47" cy="26.76" r="6.94"/>
  <circle class="cls-4" cx="162.47" cy="26.76" r="3.15"/>
  <path class="cls-7" d="M202.73,152.22h-72.65v-15.88h-6.56v-32.67h-8.28v-2.87h-2.07v1.97h-7.72v-6.13h-9.19v-2.95h-17.95v2.18h-8.86v64.09H792.76v-25.58h-7.5v-6.96h-3v7.01h-13.5v-18.88h-13.5v25.6h-25.5v-31.2h-3v-8.7h-6v-3.05h-1.5v-3.32h-1.5v-4.93h-3v4.86h-1.5v3.17c0,.14-1.5,0-1.5,0v3.67h-1.5v7.03h-5.25v21.2l-2.25,1.48v-27.4h-4.5v-2.93h-16.5v-1.07h-13.5v3.01h-7.5v4.93h-4.5v-14.99h-33.5v6.25h-4.5v18.39h-4.5v18.34h-3v-24.25h-9v18.72h-10.5l-1.5-48.95h-3v1.97h-3.61v-8.87h-3.89v-3.64h-1.5v-4.52h-1.5v-9.59l-3-1.97-6-1.97v5h-1.5v9.79h-1.5v3.94h-1.5v3.9h-4.5v-1.93h-4.5v26.27h-4.5l-1.5-2.96h-16.5v2.96h-7.58v19.67l-1.42,.94v-28.49l-13.5-1.92v-19.78h-19.5v-16.73h-3v14.58h-6v2.94h-16.5v24.85h-6V49.18h-4.5v-8.87h-4.5v-2.49l-6-5.92v-13.8l-3-2.26V1.5h-1.5v14.62l-3,1.97v13.8l-6,5.92v2.95h-4.5v8.87h-3.75V123.97l-2.25,1.48v-57.48h-24V32.88h-3.02v-7.45h-14.32l-12.66,8.32v24.66h-19.5v75.75h-4.5v-58.05h-1.5v-8.83h-3v-12.03h-7.5v-8.76h-12v-1.92h-1.46v-4.9h-1.55v6.9h-2.99v1.95h-8.45v6.9h-3.55v11.86h-4.5v10.92h-3v38.38h-6v-31.55l-13.5-5.07v-2.26h-6v2.41l-15,3.94v24.06h-3v-1.19h-9v-2.17h-4.5v-25.47h-3v-2.14h-3v-1.44h-3v-2.5l-10.5,.09v1.88l-4.02,.23v3.32h-3.48v3.36l-4.5-.35v69.36"/>
  <path class="cls-9" d="M1825.3,149.46v3h-12v-3h-1.5v3h-12v-3h-1.5v3h-13.5v-3h-1.5v3h-12v-3h-1.5v3h-12v-3h-1.5v3h-12v-3h-1.5v3h-13.5v-3h-1.5v4.5h-7.5v-52.5h-3s-3-9-10.5-9-10.5,9-10.5,9h-3v52.5h-21v-20.83l5.03,.02-15.07-21.91-20.63-8.09-20.66,7.9-15.16,21.77,4.98,.02v24.8h-55.22v-24.67c5.57-.59,9.91-5.31,9.91-11.04,0-6.13-4.97-11.1-11.1-11.1s-11.1,4.97-11.1,11.1c0,5.73,4.34,10.44,9.91,11.04v24.67h-11.53v-12.08c2.05-.53,3.57-2.37,3.57-4.59,0-2.63-2.13-4.76-4.76-4.76s-4.76,2.13-4.76,4.76c0,2.21,1.52,4.06,3.57,4.59v12.08h-13.05v-27.04c6.45-.6,11.5-6.02,11.5-12.63,0-7.01-5.68-12.69-12.69-12.69s-12.69,5.68-12.69,12.69c0,6.61,5.05,12.03,11.5,12.63v27.04h-14.15v-8.07c3.15-.56,5.55-3.31,5.55-6.62,0-3.72-3.02-6.74-6.74-6.74s-6.74,3.02-6.74,6.74c0,3.31,2.4,6.06,5.55,6.62v8.07h-9.44v-19.92c4.91-.59,8.72-4.76,8.72-9.83,0-5.47-4.44-9.91-9.91-9.91s-9.91,4.44-9.91,9.91c0,5.07,3.81,9.25,8.72,9.83v19.92h-56.58v-.78s.01-15.84,.01-15.84h3.7l-16.9-11.62v-3.42l-4.23-5.03-4.75,5.03v3.42l-16.37,11.62h3.7v16.63h-11.44v-6.64s6.16,.05,6.16-3.65-6.87-16.37-7.92-16.37-7.39,12.02-7.39,16.37c0,3.7,6.34,3.65,6.34,3.65l-.08,6.64h-12.59v-19.27h2.18l-9.05-13.73h-17.43l-10.03,13.73h2.11l.08,19.54h-26.64v-9.76h2.8l-20.07-14.26-21,14.26h3.04v9.76h-23.14l.02-1.06v-15.84h3.7l-16.9-11.62v-3.42l-4.23-5.03-4.75,5.03v3.42l-16.37,11.62h3.7v16.9h-11.44v-6.92s6.16,.05,6.16-3.65-6.87-16.37-7.92-16.37-7.39,12.02-7.39,16.37c0,3.7,6.34,3.65,6.34,3.65l-.09,6.92h-12.59v-19.54h2.18l-9.05-13.73h-17.43l-10.04,13.73h2.11l.08,19.54h-26.64v-17.43h2.8l-20.07-14.26-21,14.26h3.04v17.43h-15.88v-2.43h-3.31v-2.06h-3v-15.82h-13.5v15.13h-1.5v-6.19h-9v6.36h-12v-4.58h-27v-21.74h-15v-2.75h-4.5v2.24h-3v12.38h-2.53v-1.55h-4.97v18.75h-9v-36.81h-7.5v-7.05h-7.5v6.19h-12v37.84h-18.02v-18.75h-4.3v3.78h-6.19v14.79h-2.86v-.37h-8.26v-9.91h-13.21v-16.52h-11.56v23.12h-39.64v-2.38h-11.56v-13.44h-16.52v-3.79h-1.65v3.79h-13.21v14.17h-14.87v-28.08h-13.21v9.93h-24.78v-3.32h-3.3v14.5h-14.87v-21.1h-14.87v22.24h-14.87v-14.2h-19.82v20.26h-3.3v3.08h-6.61v-19.18h-13.21v-28.72h-14.87v35.54h-28.08v-21.78h-23.12v22.16h-6.61v-9.66h-4.96v-16.35l-4.95-4.96-.4-6.8h-1.32v6.74l-4.89,4.89v16.29h-4.96v23.29h-9.91v-28.39h-3.3v-22.34h-3.3v-13.07h-3.3v-10.9l-3.67-8.23v-6.63h-2.94v6.6l-4.95,8.93v10.89h-3.3v13.21h-1.65v23.12h-1.65v17.14h-3.3v-26.49h-18.17v13.42h-6.61v-26.24h-19.82v49.35h-1.65V90.29h-14.87v-5.11h-8.26v5.1h-6.61v30.34h-3.3v19.82h-16.52v-46.31h-13.21v52.91h-6.61v-27.72h-4.95v-5.31h-14.87v23.12h-6.61v-34.69h-21.11v47.54l-11.92-11.92v-30.67h-13.21v37.29h-4.95v-50.57h-18.17v41.35h-16.52v20.01h-4.95v-33.22h-4.95v33.03h-4.95v-21.78h-6.61v21.78h-8.26v-11.36h-4.8v-39.84h-10.07v39.08h-11.56v-16.47h-21.47v-9.39h-19.82v8.26h-8.26v24.62h-9.91v4.73h-3.3v-2.27h-3.3v-17.42h-14.87v16.66h-1.65v-6.82h-9.91v7.01h-13.21v-5.04h-29.73v-23.93h-16.52v-3.03h-4.95v2.46h-3.3v13.63h-2.79v-1.7h-5.47v20.64h-9.91v-40.52h-8.26v-7.76h-8.26v6.82h-13.21v41.66H14.84v-20.64h-4.73v4.17H3.29v16.29H0v4.84H1729.29v-6h13.5v6h1.5v-6h12v6h1.5v-6h12v6h1.5v-6h12v6h1.5v-6h13.5v6h1.5v-6h12v6h1.5v-6h12v6h1.5v-10.5h-1.5Z"/>
  <path class="cls-3" d="M157.39,104.46c1.11-1.98,2.35-3.84,3.46-5.69-.23-.39-.45-.75-.68-1.13-.7,.49-1.47,.88-2.3,1.16l-.49,5.66Z"/>
  <path class="cls-3" d="M163.08,81.2c.74,1.61,1.61,3.34,2.35,4.95l-.44-6.3c-.39-.16-.75-.36-1.1-.58-.29,.62-.56,1.26-.81,1.93Z"/>
  <path class="cls-3" d="M164.07,59.79c-.37,1.11-.87,2.23-1.36,3.46,.38,.98,.72,1.92,1.06,2.87,.19-.12,.38-.24,.58-.34l-.27-5.99Z"/>
  <path class="cls-3" d="M161.23,43.21c.25,.74,.5,2.1,.74,2.72,.37-.74,.62-1.98,.87-2.72h-1.61Z"/>
  <path class="cls-3" d="M161.35,47.79c-.25-.62-.49-1.36-.74-2.1l-.11,2.18c.23,.11,.46,.24,.68,.38,.06-.15,.11-.3,.17-.46Z"/>
  <path class="cls-3" d="M159.99,74.64c.74,1.24,1.48,3.09,1.98,4.45,.15-.3,.31-.64,.47-.99-.92-.95-1.6-2.14-1.94-3.46h-.51Z"/>
  <path class="cls-3" d="M162.09,96.91c.87-1.48,1.73-2.85,2.6-4.33h-1.03c-.36,1.4-1.03,2.66-1.96,3.7,.13,.21,.26,.43,.39,.64Z"/>
  <path class="cls-3" d="M165.06,89.37c-.99-2.1-1.98-4.21-2.97-6.31-.2,.39-.39,.77-.59,1.16,1.3,1.37,2.17,3.16,2.39,5.15h1.17Z"/>
  <path class="cls-3" d="M161.1,80.95c-.62-1.24-1.24-2.6-1.86-3.84l-.36,5.2c.42,.2,.83,.43,1.21,.69,.33-.68,.65-1.36,1-2.06Z"/>
  <path class="cls-3" d="M161.06,58.29c.34,1,.67,2.08,.91,2.86,.5-1.24,1.11-3.22,1.61-4.45h-.79c-.47,.64-1.05,1.18-1.73,1.59Z"/>
  <path class="cls-3" d="M162.67,66.99c-.2-.56-.39-1.11-.58-1.63-.74,2.1-1.73,4.58-2.47,6.68h.65c.15-1.99,1.04-3.76,2.4-5.05Z"/>
  <path class="cls-3" d="M153.16,128.42h14.83c-2.45-3.98-4.89-8.1-7.34-12.08-2.45,3.97-4.89,8.1-7.49,12.08Z"/>
  <path class="cls-3" d="M154.06,105.46s-1.53,18.86-1.69,18.71c2.3-3.53,4.45-7.05,6.59-10.58-1.53-2.76-3.22-5.37-4.91-8.13Z"/>
  <path class="cls-3" d="M162.71,47.91c.37,.87,.62,1.86,.99,2.72l-.25-4.83c-.25,.62-.49,1.36-.74,2.1Z"/>
  <path class="cls-3" d="M162.09,99.01c-1.48,2.35-2.85,4.58-4.21,6.81h8.29c-1.36-2.23-2.72-4.58-4.08-6.81Z"/>
  <path class="cls-3" d="M155.74,103.16c1.53,2.61,3.22,5.37,4.91,7.97,1.69-2.61,3.22-5.37,4.91-7.97h-9.81Z"/>
  <path class="cls-3" d="M165.8,94.69c-.87,1.36-1.73,2.72-2.47,4.21,1.11,1.86,2.23,3.71,3.34,5.57l-.87-9.78Z"/>
  <path class="cls-3" d="M159.99,59.54l-.37,8.41c.62-1.61,1.11-3.22,1.73-4.83-.49-1.11-.87-2.35-1.36-3.59Z"/>
  <path class="cls-3" d="M168.62,124.47l-1.53-18.55c-1.69,2.76-3.22,5.37-4.91,7.97,2.15,3.53,4.29,7.05,6.44,10.58Z"/>
  <path class="cls-10" d="M163.08,40.61h-1.86c0,.1,.02,.2,.05,.29l1.75,.04c.03-.1,.05-.21,.05-.34Z"/>
  <path class="cls-10" d="M163.08,26.38c0-.62-.37-.99-.74-.99h-.5c-.5,0-.74,.37-.62,.99v12.62h1.86v-12.62Z"/>
  <polygon class="cls-10" points="165.38 55.96 167.04 55.96 167.04 54.22 165.3 54.22 165.31 54.47 165.38 55.96"/>
  <polygon class="cls-10" points="154.91 72.41 154.91 74.27 157.41 74.27 157.51 72.41 154.91 72.41"/>
  <path class="cls-10" d="M167.78,55.96h-.74v1.86c0,.49,.37,.87,.74,.87h.37c.5,0,.74-.37,.74-.87v-8.91c0-.49-.37-.87-.74-.87h-.5c-.37,0-.62,.37-.62,.87v5.32h.74v1.73Z"/>
  <rect class="cls-10" x="167.04" y="54.22" width=".74" height="1.73"/>
  <path class="cls-10" d="M154.3,72.41h.62v-9.16c0-.49-.37-.87-.74-.87h-.37c-.37,0-.74,.37-.74,.87v15.59c0,.49,.37,.87,.74,.87h.37c.5,0,.74-.37,.74-.87v-4.58h-.62v-1.86Z"/>
  <rect class="cls-10" x="154.3" y="72.41" width=".62" height="1.86"/>
  <path class="cls-10" d="M159.99,39c-.12,0-.37,.25-.37,.62v.37c0,.37,.25,.62,.37,.62h1.24v-1.61h-1.24Z"/>
  <path class="cls-10" d="M163.95,40.61c.12,0,.37-.25,.37-.62v-.37c0-.37-.12-.62-.37-.62h-.87v1.61h.87Z"/>
  <rect class="cls-10" x="161.23" y="39" width="1.86" height="1.61"/>
  <path class="cls-10" d="M162.09,120.67c1.97,3.21,3.95,6.54,5.92,9.75h2.77l-1.76-20.51-1.61-18.69-.74-10.89c-.59-.1-1.15-.26-1.69-.48l.44,6.3c-.74-1.61-1.61-3.34-2.35-4.95,.24-.67,.52-1.31,.81-1.93-.53-.33-1.02-.72-1.45-1.17-.16,.36-.32,.69-.47,.99-.49-1.36-1.24-3.22-1.98-4.45h.51c-.16-.63-.26-1.29-.26-1.98,0-.21,.01-.41,.03-.62h-.65c.74-2.1,1.73-4.58,2.47-6.68,.19,.53,.38,1.07,.58,1.63,.34-.32,.71-.61,1.1-.87-.34-.95-.68-1.89-1.06-2.87,.5-1.24,.99-2.35,1.36-3.46l.27,5.99c.47-.25,.97-.45,1.49-.6l-.45-9.23h-1.19v-1.73h1.1l-.73-13.24-1.54-.04c-.11,.41-.39,.65-.69,.65h-.37c-.3,0-.58-.32-.69-.7l-2.03-.05-.12,1.36-.26,5.15c.57,.09,1.12,.26,1.64,.5l.11-2.18c.25,.74,.5,1.48,.74,2.1-.06,.16-.11,.3-.17,.46,1.65,1.07,2.77,2.92,2.77,4.99,0,1.28-.44,2.48-1.16,3.46h.79c-.5,1.24-1.11,3.22-1.61,4.45-.23-.78-.57-1.86-.91-2.86-.85,.52-1.82,.84-2.86,.87l-.7,13.25h1.99v1.86h-2.08l-.02,.37-.47,7c.69,.15,1.35,.38,1.97,.67l.36-5.2c.62,1.24,1.24,2.6,1.86,3.84-.35,.7-.68,1.38-1,2.06,.51,.35,.98,.76,1.41,1.21,.2-.39,.38-.77,.59-1.16,.99,2.1,1.98,4.21,2.97,6.31h-1.17c.04,.33,.06,.65,.06,.99,0,.77-.11,1.52-.29,2.23h1.03c-.87,1.48-1.73,2.85-2.6,4.33-.13-.2-.26-.43-.39-.64-.45,.51-.96,.97-1.52,1.36,.23,.37,.45,.74,.68,1.13-1.11,1.86-2.35,3.71-3.46,5.69l.49-5.66c-.72,.24-1.48,.39-2.27,.44l-.81,9.56-1.89,21.62h3.14c2.1-3.21,4.07-6.54,6.04-9.75Zm-.12-74.74c-.25-.62-.49-1.98-.74-2.72h1.61c-.25,.74-.49,1.98-.87,2.72Zm.74,1.98c.25-.74,.5-1.48,.74-2.1l.25,4.83c-.37-.87-.62-1.86-.99-2.72Zm-2.72,11.63c.49,1.24,.87,2.47,1.36,3.59-.62,1.61-1.11,3.22-1.73,4.83l.37-8.41Zm-1.86,50.49h7.92c-1.36,2.1-2.6,4.33-3.96,6.43-1.36-2.1-2.72-4.33-3.96-6.43Zm10.39,17.2c-1.73-2.85-3.46-5.69-5.2-8.54,1.36-2.1,2.6-4.21,3.96-6.43l1.24,14.97Zm-2.72-32.54l.87,9.78c-1.11-1.86-2.23-3.71-3.34-5.57,.74-1.48,1.61-2.85,2.47-4.21Zm-3.71,5.94c1.36,2.23,2.72,4.58,4.08,6.81h-8.29c1.36-2.23,2.72-4.45,4.21-6.81Zm-5.32,11.26c1.36,2.23,2.72,4.33,3.96,6.56-1.73,2.85-3.46,5.69-5.32,8.54,.12,.12,1.36-15.1,1.36-15.1Z"/>
  <path class="cls-10" d="M161.97,41.6h.37c.3,0,.58-.24,.69-.65l-1.75-.04c.11,.38,.39,.7,.69,.7Z"/>
  <polygon class="cls-10" points="164.2 55.96 165.38 55.96 165.31 54.47 165.3 54.22 164.2 54.22 164.2 55.96"/>
  <polygon class="cls-10" points="159.49 72.41 157.51 72.41 157.41 74.27 159.49 74.27 159.49 72.41"/>
  <path class="cls-10" d="M168.4,65.48c3.96,0,7.05,3.09,7.05,7.05s-3.09,7.05-7.05,7.05c-.62,0-1.22-.08-1.79-.23l.07,.97c.44,.08,.89,.12,1.36,.12,4.33,0,7.8-3.46,7.8-7.8s-3.46-7.8-7.8-7.8c-.77,0-1.5,.11-2.2,.32l.04,.78c.78-.3,1.63-.47,2.53-.47Z"/>
  <path class="cls-10" d="M163.02,67.98c-.12-.33-.24-.66-.35-.99-1.36,1.29-2.25,3.06-2.4,5.05h1.11c.11-1.53,.7-2.94,1.65-4.06Z"/>
  <path class="cls-10" d="M161.66,74.64h-1.16c.34,1.33,1.02,2.51,1.94,3.46,.16-.34,.32-.71,.49-1.08-.56-.69-1-1.5-1.27-2.39Z"/>
  <path class="cls-10" d="M164.39,66.74l-.04-.96c-.2,.11-.39,.22-.58,.34,.1,.28,.21,.56,.31,.84,.1-.08,.2-.16,.31-.23Z"/>
  <path class="cls-10" d="M164.34,78.34c-.15,.31-.31,.62-.45,.93,.35,.22,.72,.42,1.1,.58l-.08-1.16c-.2-.11-.38-.23-.57-.35Z"/>
  <path class="cls-10" d="M164.08,66.97c-.1-.28-.21-.57-.31-.84-.39,.26-.76,.55-1.1,.87,.12,.32,.24,.66,.35,.99,.31-.37,.67-.71,1.05-1.01Z"/>
  <path class="cls-10" d="M161.35,72.54c0-.17,.01-.33,.02-.49h-1.11c-.02,.2-.03,.41-.03,.62,0,.69,.1,1.35,.26,1.98h1.16c-.2-.66-.31-1.37-.31-2.1Z"/>
  <path class="cls-10" d="M162.92,77.03c-.17,.37-.33,.73-.49,1.08,.43,.45,.92,.83,1.45,1.17,.15-.32,.3-.62,.45-.93-.53-.37-1.01-.81-1.42-1.31Z"/>
  <path class="cls-10" d="M164.91,78.69l.08,1.16c.53,.22,1.1,.38,1.69,.48l-.07-.97c-.6-.15-1.18-.38-1.7-.67Z"/>
  <path class="cls-10" d="M164.39,66.74c.46-.32,.95-.58,1.48-.78l-.04-.78c-.52,.15-1.02,.35-1.49,.6l.04,.96Z"/>
  <path class="cls-10" d="M164.44,67.96l-.06-1.22c-.11,.07-.21,.15-.31,.23,.12,.33,.23,.65,.36,.99Z"/>
  <path class="cls-10" d="M166.61,79.36c.57,.14,1.17,.23,1.79,.23,3.96,0,7.05-3.22,7.05-7.05s-3.09-7.05-7.05-7.05c-.9,0-1.75,.17-2.53,.47l.43,8.81,.31,4.6Z"/>
  <path class="cls-10" d="M164.34,78.34c.18,.13,.37,.24,.57,.35l-.09-1.33c-.16,.32-.32,.65-.47,.97Z"/>
  <path class="cls-10" d="M163.02,67.98c-.95,1.12-1.54,2.53-1.65,4.06h3.19c-.52-1.27-1.05-2.68-1.54-4.06Z"/>
  <path class="cls-10" d="M161.66,74.64c.27,.89,.7,1.69,1.27,2.39,.37-.83,.76-1.67,1.15-2.39h-2.42Z"/>
  <path class="cls-10" d="M164.08,66.97c-.39,.3-.74,.64-1.05,1.01,.5,1.38,1.02,2.79,1.54,4.06h-3.19c-.01,.16-.02,.33-.02,.49,0,.74,.11,1.44,.31,2.1h2.42c-.39,.71-.78,1.56-1.15,2.39,.41,.5,.89,.94,1.42,1.31,.16-.32,.31-.65,.47-.97l.09,1.33c.53,.29,1.1,.52,1.7,.67l-.31-4.6-.43-8.81c-.53,.2-1.03,.46-1.48,.78l.06,1.22c-.13-.34-.24-.66-.36-.99Z"/>
  <path class="cls-10" d="M160.94,48.86c.08-.2,.15-.4,.23-.61-.22-.14-.44-.27-.68-.38l-.03,.68c.16,.1,.33,.19,.48,.31Z"/>
  <path class="cls-10" d="M157.76,58.68c-2.97,0-5.44-2.47-5.44-5.44s2.47-5.44,5.44-5.44c.37,0,.73,.04,1.07,.11l.03-.53c-.28-.04-.56-.07-.85-.07-3.22,0-5.94,2.6-5.94,5.94s2.72,5.94,5.94,5.94c.07,0,.13,0,.2-.01l.03-.53c-.16,.01-.31,.05-.47,.05Z"/>
  <path class="cls-10" d="M162.09,49.65c-.03,.08-.06,.17-.09,.25,.1,.13,.21,.25,.3,.39-.07-.21-.14-.44-.21-.63Z"/>
  <path class="cls-10" d="M160.85,57.69c.07,.2,.14,.4,.21,.6,.67-.41,1.26-.96,1.73-1.59h-.88c-.31,.37-.66,.71-1.05,.99Z"/>
  <path class="cls-10" d="M163.1,54.22h.47c-.13-.36-.26-.75-.39-1.15,0,.05,.02,.11,.02,.16,0,.34-.04,.67-.1,.99Z"/>
  <path class="cls-10" d="M160.85,57.69c-.76,.53-1.66,.86-2.62,.94l-.03,.53c1.03-.04,2.01-.35,2.86-.87-.07-.21-.14-.41-.21-.6Z"/>
  <path class="cls-10" d="M162,49.89c.03-.08,.06-.17,.09-.25,.07,.2,.14,.42,.21,.63,.53,.81,.85,1.77,.88,2.79,.13,.41,.26,.8,.39,1.15h-.47c-.18,.93-.61,1.77-1.2,2.47h.88c.72-.98,1.16-2.18,1.16-3.46,0-2.06-1.12-3.92-2.77-4.99-.08,.2-.16,.41-.23,.61,.4,.29,.75,.64,1.06,1.03Z"/>
  <path class="cls-10" d="M160.46,48.55l.03-.68c-.51-.24-1.06-.42-1.64-.5l-.03,.53c.58,.12,1.13,.36,1.63,.65Z"/>
  <path class="cls-10" d="M161.9,56.7h-1.42c.12,.29,.24,.63,.37,.99,.4-.28,.74-.62,1.05-.99Z"/>
  <path class="cls-10" d="M160.94,48.86c-.15-.11-.32-.21-.48-.31l-.1,2.08c.15-.62,.36-1.2,.58-1.78Z"/>
  <path class="cls-10" d="M163.1,54.22c.06-.32,.1-.65,.1-.99,0-.06-.02-.11-.02-.16-.29-.92-.59-1.91-.88-2.79-.09-.14-.2-.26-.3-.39-.48,1.33-1.05,3.05-1.4,4.33h2.5Z"/>
  <path class="cls-10" d="M158.5,54.47l.33-6.57c-.35-.07-.71-.11-1.07-.11-2.97,0-5.44,2.47-5.44,5.44s2.47,5.44,5.44,5.44c.16,0,.31-.03,.47-.05l.15-2.8,.12-1.36Z"/>
  <path class="cls-10" d="M162.31,50.28c.29,.88,.59,1.87,.88,2.79-.03-1.02-.35-1.98-.88-2.79Z"/>
  <path class="cls-10" d="M161.9,56.7c.59-.7,1.02-1.54,1.2-2.47h-2.5c.35-1.29,.92-3,1.4-4.33-.31-.39-.66-.74-1.06-1.03-.22,.58-.43,1.16-.58,1.78l.1-2.08c-.5-.29-1.04-.53-1.63-.65l-.33,6.57-.12,1.36-.15,2.8c.96-.09,1.86-.41,2.62-.94-.13-.36-.25-.69-.37-.99h1.42Z"/>
  <path class="cls-10" d="M154.79,98.28c-4.58,0-8.17-3.71-8.17-8.17s3.59-8.17,8.17-8.17c.72,0,1.42,.1,2.09,.28l.04-.57c-.61-.13-1.23-.2-1.88-.2-4.95,0-8.91,3.96-8.91,8.91s3.96,8.91,8.91,8.91c.19,0,.38-.02,.57-.03l.09-1.01c-.3,.03-.59,.05-.9,.05Z"/>
  <path class="cls-10" d="M161.12,95.33c.19,.32,.39,.64,.58,.95,.92-1.04,1.6-2.3,1.96-3.7h-1.07c-.31,1.02-.82,1.95-1.47,2.74Z"/>
  <path class="cls-10" d="M157.98,97.65l-.1,1.15c.83-.28,1.6-.67,2.3-1.16-.18-.31-.37-.62-.55-.92-.51,.37-1.06,.68-1.65,.93Z"/>
  <path class="cls-10" d="M162.92,89.37h.97c-.22-1.99-1.09-3.78-2.39-5.15-.13,.25-.25,.49-.37,.74,1,1.23,1.64,2.75,1.79,4.41Z"/>
  <path class="cls-10" d="M159.78,83.65c.1-.21,.21-.43,.31-.64-.38-.26-.79-.49-1.21-.69l-.05,.7c.33,.19,.65,.4,.95,.64Z"/>
  <path class="cls-10" d="M159.63,96.72c.18,.3,.37,.62,.55,.92,.56-.39,1.07-.85,1.52-1.36-.19-.31-.39-.63-.58-.95-.43,.53-.94,.99-1.49,1.39Z"/>
  <path class="cls-10" d="M162.96,90.11c0,.87-.13,1.7-.37,2.47h1.07c.18-.71,.29-1.46,.29-2.23,0-.34-.02-.66-.06-.99h-.97c.02,.25,.04,.49,.04,.74Z"/>
  <path class="cls-10" d="M157.98,97.65c-.71,.29-1.48,.49-2.29,.58l-.09,1.01c.79-.05,1.55-.2,2.27-.44l.1-1.15Z"/>
  <path class="cls-10" d="M161.13,84.96c.12-.25,.25-.49,.37-.74-.43-.45-.9-.86-1.41-1.21-.1,.21-.21,.43-.31,.64,.5,.39,.95,.82,1.35,1.31Z"/>
  <path class="cls-10" d="M158.84,83.01l.05-.7c-.62-.3-1.28-.53-1.97-.67l-.04,.57c.7,.18,1.35,.45,1.96,.79Z"/>
  <path class="cls-10" d="M159.78,83.65c-.3-.23-.62-.45-.95-.64l-.21,3.01c.41-.81,.78-1.59,1.16-2.37Z"/>
  <path class="cls-10" d="M162.92,89.37c-.15-1.65-.79-3.18-1.79-4.41-.73,1.47-1.44,2.94-2.13,4.41h3.92Z"/>
  <path class="cls-10" d="M161.12,95.33c.65-.8,1.16-1.72,1.47-2.74h-3.1c.54,.93,1.08,1.85,1.63,2.74Z"/>
  <path class="cls-10" d="M156.28,91.1l.6-8.88c-.66-.17-1.36-.28-2.09-.28-4.58,0-8.17,3.71-8.17,8.17s3.59,8.17,8.17,8.17c.3,0,.6-.02,.9-.05l.59-6.88v-.25Z"/>
  <path class="cls-10" d="M158.26,94.44l-.28,3.21c.59-.24,1.14-.56,1.65-.93-.46-.75-.91-1.5-1.37-2.28Z"/>
  <path class="cls-10" d="M159.63,96.72c.55-.4,1.06-.87,1.49-1.39-.54-.9-1.08-1.81-1.63-2.74h3.1c.24-.78,.37-1.61,.37-2.47,0-.25-.02-.5-.04-.74h-3.92c.69-1.47,1.4-2.94,2.13-4.41-.39-.49-.85-.92-1.35-1.31-.38,.78-.75,1.56-1.16,2.37l.21-3.01c-.61-.35-1.26-.61-1.96-.79l-.6,8.88v.25l-.59,6.88c.81-.08,1.57-.28,2.29-.58l.28-3.21c.46,.78,.91,1.53,1.37,2.28Z"/>
  <rect class="cls-6" x="-.6" y="159.5" width="1948" height="44"/>
</svg>