<?xml version="1.0" encoding="UTF-8"?>
<svg id="Capa_1" data-name="Capa 1" xmlns="http://www.w3.org/2000/svg" xmlns:xlink="http://www.w3.org/1999/xlink" viewBox="0 0 486.8 203">
  <defs>
    <style>
      .cls-1 {
        fill: #fff;
      }

      .cls-2 {
        fill: url(#Degradado_sin_nombre_30);
      }

      .cls-3 {
        fill: url(#Degradado_sin_nombre_29);
      }

      .cls-4 {
        fill: url(#Degradado_sin_nombre_11);
      }

      .cls-5 {
        fill: #c1c1c1;
      }

      .cls-6 {
        fill: url(#Degradado_sin_nombre_24);
      }

      .cls-7 {
        fill: url(#Degradado_sin_nombre_9);
      }

      .cls-8 {
        fill: url(#Degradado_sin_nombre_11-2);
      }

      .cls-9 {
        fill: #9e9e9e;
      }

      .cls-10 {
        fill: url(#Degradado_sin_nombre_23);
      }

      .cls-11 {
        fill: url(#Degradado_sin_nombre_12);
      }
    </style>
    <linearGradient id="Degradado_sin_nombre_12" data-name="Degradado sin nombre 12" x1="730.4" y1="2.47" x2="730.4" y2="142.29" gradientUnits="userSpaceOnUse">
      <stop offset=".09" stop-color="#e2e2e2"/>
      <stop offset=".89" stop-color="#f4f4f4"/>
    </linearGradient>
    <linearGradient id="Degradado_sin_nombre_11" data-name="Degradado sin nombre 11" x1="730.64" y1="74.65" x2="730.64" y2="146.71" gradientUnits="userSpaceOnUse">
      <stop offset="0" stop-color="#c6c6c6"/>
      <stop offset=".28" stop-color="#cbcbcb"/>
      <stop offset=".64" stop-color="#dbdbdb"/>
      <stop offset="1" stop-color="#f3f3f3"/>
    </linearGradient>
    <linearGradient id="Degradado_sin_nombre_24" data-name="Degradado sin nombre 24" x1="256.44" y1="26.55" x2="256.44" y2="174.26" gradientUnits="userSpaceOnUse">
      <stop offset=".3" stop-color="#aaa"/>
      <stop offset=".89" stop-color="#c6c6c6"/>
    </linearGradient>
    <linearGradient id="Degradado_sin_nombre_11-2" data-name="Degradado sin nombre 11" x1="465.52" y1="74.65" x2="465.52" y2="146.71" xlink:href="#Degradado_sin_nombre_11"/>
    <linearGradient id="Degradado_sin_nombre_30" data-name="Degradado sin nombre 30" x1="413.12" y1="82.48" x2="413.12" y2="154.54" gradientUnits="userSpaceOnUse">
      <stop offset=".23" stop-color="#d3d3d3"/>
      <stop offset=".69" stop-color="#d5d5d5"/>
      <stop offset=".99" stop-color="#dedede"/>
      <stop offset="1" stop-color="#dfdfdf"/>
    </linearGradient>
    <linearGradient id="Degradado_sin_nombre_9" data-name="Degradado sin nombre 9" x1="-208.58" y1="12.55" x2="-208.58" y2="145.19" gradientUnits="userSpaceOnUse">
      <stop offset="0" stop-color="#d6d6d6"/>
      <stop offset=".44" stop-color="#d8d8d8"/>
      <stop offset=".73" stop-color="#e1e1e1"/>
      <stop offset=".96" stop-color="#f0f0f0"/>
      <stop offset="1" stop-color="#f3f3f3"/>
    </linearGradient>
    <linearGradient id="Degradado_sin_nombre_23" data-name="Degradado sin nombre 23" x1="153.08" y1="12.55" x2="153.08" y2="145.19" gradientUnits="userSpaceOnUse">
      <stop offset=".23" stop-color="#c4c4c4"/>
      <stop offset=".58" stop-color="#c6c6c6"/>
      <stop offset=".8" stop-color="#cfcfcf"/>
      <stop offset=".99" stop-color="#dedede"/>
      <stop offset="1" stop-color="#dfdfdf"/>
    </linearGradient>
    <linearGradient id="Degradado_sin_nombre_29" data-name="Degradado sin nombre 29" x1="243.4" y1="112.75" x2="243.4" y2="157.39" gradientUnits="userSpaceOnUse">
      <stop offset="0" stop-color="#ededed"/>
      <stop offset=".49" stop-color="#f2f2f2"/>
      <stop offset="1" stop-color="#fff"/>
    </linearGradient>
  </defs>
  <path class="cls-11" d="M919.98,1.81c-24.75-3.64-99.76,25.03-171.76,58.17-54.52,25.09-195.93,58.77-261.42,73.65v26.32h487.2V18.41c-25.19-8.98-45.36-15.32-54.02-16.6Z"/>
  <path class="cls-4" d="M961.84,118.19s-5.97-20.07-28.56-24.83c-16.06-3.39-24.86,8.58-24.86,8.58,0,0,10.58-28.9-26.61-31.84-34.42-2.73-41.57,32.08-42.44,37.29-.03,.43-.1,.65-.1,.65,0,0,.03-.23,.1-.65,.15-2.3-1.03-10.51-22.1-21.92-24.99-13.54-44.62,4.52-46.4,4.52s-12.49-20.32-42.83-21.45c-28.72-1.07-28.65,37.3-28.56,41.4,0,.23,0,.36,0,.36,0,0,0-.13,0-.36-.13-3.18-2.03-26.8-30.33-27.86-44.07-1.64-44.62,46.28-44.62,46.28,0,0-1.78-21.45-17.85-24.83-13.35-2.81-20.53,7.62-21.55,9.28-.17,.32-.17,.28,0,0,.04-.07,.08-.15,.13-.25,1.78-3.39-5.35-20.32-39.26-22.57-20.43-1.36-26.61,12.03-27.7,21.03,1.85,1.99,2.57,4.23,1.82,6.6-1.06,3.37-2.55-.66-1.82-6.6-4.77-5.12-17.05-8.62-31.19-8.62-.11,0-.21,0-.32,0v56.58l487.46,.5,.23-54.03c-8.68,6.22-12.65,12.75-12.65,12.75Z"/>
  <path class="cls-9" d="M26.07,159.96s59.1-59.85,138.6-75.13c79.51-15.28,108.01-18.18,153.01-4.28,45,13.9,92.82,58.56,134.91,60.7,0,0,13.19-2.84,34.2-7.61V0H0V203H486.8v-43.04H26.07Z"/>
  <path class="cls-6" d="M317.69,80.55c-45-13.9-73.5-11.01-153.01,4.28C85.17,100.11,26.07,159.96,26.07,159.96H486.8v-26.32c-21.01,4.77-34.2,7.61-34.2,7.61-42.1-2.14-89.91-46.8-134.91-60.7Z"/>
  <path class="cls-5" d="M465.67,117.46c-.28,1.39-.3,2.3-.3,2.3,0,0,.2-.89,.3-2.3Z"/>
  <path class="cls-8" d="M465.67,117.46c-.28,1.39-.3,2.3-.3,2.3,0,0,.2-.89,.3-2.3Z"/>
  <path class="cls-5" d="M465.67,117.46c-.1,1.41-.3,2.3-.3,2.3,0,0,.02-.91,.3-2.3,.35-4.83-.43-15.83-14.25-18.45-17.85-3.39-28.56,25.96-30.34,29.35-7.14-4.51-8.92-4.51-14.1-3.95-7.32-6.21-32.31-12.98-44.8-7.34-11.34,5.12-30.24,32.73-19.63,41.76l144.24,.15v-56.58c-16.26,.14-20.19,10.37-21.13,15.06Z"/>
  <path class="cls-2" d="M465.67,117.46c-.1,1.41-.3,2.3-.3,2.3,0,0,.02-.91,.3-2.3,.35-4.83-.43-15.83-14.25-18.45-17.85-3.39-28.56,25.96-30.34,29.35-7.14-4.51-8.92-4.51-14.1-3.95-7.32-6.21-32.31-12.98-44.8-7.34-11.34,5.12-30.24,32.73-19.63,41.76l144.24,.15v-56.58c-16.26,.14-20.19,10.37-21.13,15.06Z"/>
  <polygon class="cls-7" points="-.76 53.5 -.76 68.08 -6.76 68.08 -6.76 71.02 -23.26 71.02 -23.26 95.87 -29.26 95.87 -29.26 49.18 -33.76 49.18 -33.76 40.3 -38.26 40.3 -38.26 37.81 -44.26 31.9 -44.26 18.09 -47.26 15.83 -47.26 1.5 -48.76 1.5 -48.76 16.12 -51.76 18.09 -51.76 31.9 -57.76 37.82 -57.76 40.77 -62.26 40.77 -62.26 49.64 -66.01 49.64 -66.01 123.97 -68.26 125.45 -68.26 67.97 -92.26 67.97 -92.26 32.88 -95.28 32.88 -95.28 25.43 -109.6 25.43 -122.26 33.75 -122.26 58.4 -141.77 58.4 -141.77 134.15 -146.27 134.15 -146.27 76.11 -147.77 76.11 -147.77 67.28 -150.77 67.28 -150.77 55.25 -158.27 55.25 -158.27 46.49 -170.27 46.49 -170.27 44.57 -171.73 44.57 -171.73 39.67 -173.28 39.67 -173.28 46.57 -176.27 46.57 -176.27 48.53 -184.71 48.53 -184.71 55.42 -188.27 55.42 -188.27 67.28 -192.77 67.28 -192.77 78.2 -195.77 78.2 -195.77 116.57 -201.77 116.57 -201.77 85.02 -215.27 79.95 -215.27 77.69 -221.27 77.69 -221.27 80.09 -236.27 84.04 -236.27 108.1 -239.27 108.1 -239.27 106.91 -248.27 106.91 -248.27 104.74 -252.77 104.74 -252.77 79.27 -255.77 79.27 -255.77 77.14 -258.77 77.14 -258.77 75.69 -261.77 75.69 -261.77 73.19 -272.27 73.28 -272.27 75.16 -276.3 75.39 -276.3 78.71 -279.77 78.71 -279.77 82.07 -284.27 81.72 -284.27 151.08 -284.27 152.22 -356.93 152.22 -356.93 136.34 -363.49 136.34 -363.49 103.67 -371.77 103.67 -371.77 100.8 -373.84 100.8 -373.84 102.77 -381.56 102.77 -381.56 96.64 -390.75 96.64 -390.75 93.69 -408.7 93.69 -408.7 95.87 -417.56 95.87 -417.56 159.96 .4 159.96 .4 53.5 -.76 53.5"/>
  <path class="cls-5" d="M305.76,134.38h-7.5v-6.96h-3v7.01h-13.5v-18.88h-13.5v25.6h-25.5v-31.2h-3v-8.7h-6v-3.05h-1.5v-3.32h-1.5v-4.93h-3v4.86h-1.5v3.17c0,.14-1.5,0-1.5,0v3.67h-1.5v7.03h-5.25v21.2l-2.25,1.48v-27.4h-4.5v-2.93h-16.5v-1.07h-13.5v3.01h-7.5v4.93h-4.5v-14.99h-33.5v6.25h-4.5v18.39h-4.5v18.34h-3v-24.25h-9v18.72h-10.5l-1.5-48.95h-3v1.97h-3.61v-8.87h-3.89v-3.64h-1.5v-4.52h-1.5v-9.59l-3-1.97-6-1.97v5h-1.5v9.79h-1.5v3.94h-1.5v3.9h-4.5v-1.93h-4.5v26.27h-4.5l-1.5-2.96h-16.5v2.96h-7.58v19.67l-1.42,.94v-28.49l-13.5-1.92v-19.78H2.24v-16.73H.4v106.46H305.76v-25.58Z"/>
  <path class="cls-10" d="M305.76,134.38h-7.5v-6.96h-3v7.01h-13.5v-18.88h-13.5v25.6h-25.5v-31.2h-3v-8.7h-6v-3.05h-1.5v-3.32h-1.5v-4.93h-3v4.86h-1.5v3.17c0,.14-1.5,0-1.5,0v3.67h-1.5v7.03h-5.25v21.2l-2.25,1.48v-27.4h-4.5v-2.93h-16.5v-1.07h-13.5v3.01h-7.5v4.93h-4.5v-14.99h-33.5v6.25h-4.5v18.39h-4.5v18.34h-3v-24.25h-9v18.72h-10.5l-1.5-48.95h-3v1.97h-3.61v-8.87h-3.89v-3.64h-1.5v-4.52h-1.5v-9.59l-3-1.97-6-1.97v5h-1.5v9.79h-1.5v3.94h-1.5v3.9h-4.5v-1.93h-4.5v26.27h-4.5l-1.5-2.96h-16.5v2.96h-7.58v19.67l-1.42,.94v-28.49l-13.5-1.92v-19.78H2.24v-16.73H.4v106.46H305.76v-25.58Z"/>
  <polygon class="cls-3" points="486.8 159.5 486.8 118.87 485.5 118.87 485.5 111.81 478 111.81 478 118.01 466 118.01 466 155.84 447.98 155.84 447.98 137.1 443.68 137.1 443.68 140.88 437.49 140.88 437.49 155.67 434.63 155.67 434.63 155.3 426.38 155.3 426.38 145.39 413.16 145.39 413.16 128.87 401.6 128.87 401.6 152 361.96 152 361.96 149.62 350.4 149.62 350.4 136.18 333.88 136.18 333.88 132.39 332.23 132.39 332.23 136.18 319.02 136.18 319.02 150.35 304.15 150.35 304.15 122.27 290.94 122.27 290.94 132.2 266.16 132.2 266.16 128.87 262.86 128.87 262.86 143.37 247.99 143.37 247.99 122.27 233.13 122.27 233.13 144.51 218.26 144.51 218.26 130.31 198.44 130.31 198.44 150.57 195.14 150.57 195.14 153.65 188.53 153.65 188.53 134.47 175.32 134.47 175.32 105.75 160.46 105.75 160.46 141.29 132.38 141.29 132.38 119.51 109.25 119.51 109.25 141.67 102.65 141.67 102.65 132.01 97.69 132.01 97.69 115.66 92.74 110.71 92.34 103.9 91.02 103.9 91.02 110.64 86.13 115.53 86.13 131.82 81.18 131.82 81.18 155.11 71.27 155.11 71.27 126.72 67.96 126.72 67.96 104.38 64.66 104.38 64.66 91.31 61.36 91.31 61.36 80.41 57.68 72.19 57.68 65.55 54.75 65.55 54.75 72.16 49.79 81.09 49.79 91.98 46.49 91.98 46.49 105.19 44.84 105.19 44.84 128.31 43.19 128.31 43.19 145.45 39.88 145.45 39.88 118.96 21.72 118.96 21.72 132.39 15.11 132.39 15.11 106.14 0 106.14 0 159.5 486.8 159.5"/>
  <polygon class="cls-9" points="0 106.14 -4.71 106.14 -4.71 155.49 -6.36 155.49 -6.36 90.29 -21.23 90.29 -21.23 85.18 -29.49 85.18 -29.49 90.28 -36.09 90.28 -36.09 120.62 -39.4 120.62 -39.4 140.44 -55.91 140.44 -55.91 94.13 -69.13 94.13 -69.13 147.04 -75.73 147.04 -75.73 119.32 -80.69 119.32 -80.69 114.01 -95.55 114.01 -95.55 137.13 -102.16 137.13 -102.16 102.45 -123.27 102.45 -123.27 149.99 -135.19 138.07 -135.19 107.4 -148.41 107.4 -148.41 144.7 -153.36 144.7 -153.36 94.13 -171.53 94.13 -171.53 135.48 -188.05 135.48 -188.05 155.49 -193 155.49 -193 122.27 -197.96 122.27 -197.96 155.3 -202.91 155.3 -202.91 133.52 -209.52 133.52 -209.52 155.3 -217.78 155.3 -217.78 143.94 -222.57 143.94 -222.57 104.1 -232.64 104.1 -232.64 143.18 -244.2 143.18 -244.2 126.71 -265.68 126.71 -265.68 117.31 -285.5 117.31 -285.5 125.57 -293.75 125.57 -293.75 150.19 -303.66 150.19 -303.66 154.92 -306.97 154.92 -306.97 152.65 -310.27 152.65 -310.27 135.23 -325.14 135.23 -325.14 151.89 -326.79 151.89 -326.79 145.08 -336.7 145.08 -336.7 152.08 -349.91 152.08 -349.91 147.04 -379.64 147.04 -379.64 123.11 -396.16 123.11 -396.16 120.08 -401.11 120.08 -401.11 122.54 -404.42 122.54 -404.42 136.18 -407.2 136.18 -407.2 134.47 -412.67 134.47 -412.67 155.11 -422.58 155.11 -422.58 114.59 -430.84 114.59 -430.84 106.82 -439.1 106.82 -439.1 113.64 -452.32 113.64 -452.32 155.3 -472.16 155.3 -472.16 134.66 -476.89 134.66 -476.89 138.83 -483.71 138.83 -483.71 155.11 -487 155.11 -487 159.5 0 159.5 0 106.14"/>
  <polygon class="cls-1" points="434.63 158.96 434.5 158.96 0 158.96 0 203.5 486.8 203.5 486.8 158.96 434.63 158.96"/>
  <polygon class="cls-5" points="486.8 159.96 593.16 159.96 601.32 159.96 772.09 159.96 772.94 159.96 877.61 159.96 951.87 159.96 1123.78 159.96 1184.27 159.96 1240.79 159.96 1242.29 159.96 1242.29 159.5 486.8 159.5 486.8 159.96"/>
  <rect class="cls-5" x="-487" y="159.5" width="487" height=".46"/>
  <path class="cls-9" d="M951.92,157.65v-.78s.01-15.84,.01-15.84h3.7l-16.9-11.62v-3.42l-4.23-5.03-4.75,5.03v3.42l-16.37,11.62h3.7v16.63h-11.44v-6.64s6.16,.05,6.16-3.65-6.87-16.37-7.92-16.37-7.39,12.02-7.39,16.37c0,3.7,6.34,3.65,6.34,3.65l-.08,6.64h-12.59v-19.27h2.18l-9.05-13.73h-17.43l-10.04,13.73h2.11l.08,19.54h-26.64v-9.76h2.8l-20.07-14.26-21,14.26h3.04v9.76h-23.15l.02-1.06v-15.84h3.7l-16.9-11.62v-3.42l-4.23-5.03-4.75,5.03v3.42l-16.37,11.62h3.7v16.9h-11.44v-6.92s6.16,.05,6.16-3.65-6.87-16.37-7.92-16.37-7.39,12.02-7.39,16.37c0,3.7,6.34,3.65,6.34,3.65l-.09,6.92h-12.59v-19.54h2.18l-9.05-13.73h-17.43l-10.04,13.73h2.11l.08,19.54h-26.64v-17.43h2.8l-20.07-14.26-21,14.26h3.04v17.43h-15.88v-2.43h-3.31v-2.06h-3v-15.82h-13.5v15.13h-1.5v-6.19h-9v6.36h-12v-4.58h-27v-21.74h-15v-2.75h-4.5v2.24h-3v12.38h-2.53v-1.55h-4.97v18.75h-9v-36.81h-6.2v40.63h487.61v-1.85s-22.5,0-22.5,0Z"/>
  <polygon class="cls-9" points="951.45 158.96 877.26 158.96 772.68 158.96 771.83 158.96 601.21 158.96 593.06 158.96 486.8 158.96 486.8 206.5 974.4 206.5 974.23 158.96 951.45 158.96"/>
  <polygon class="cls-9" points="-487 159.04 -487 158.5 -487.6 158.5 -487.6 210.5 0 210.5 0 159.04 -487 159.04"/>
</svg>