<?xml version="1.0" encoding="UTF-8"?>
<svg id="Capa_1" data-name="Capa 1" xmlns="http://www.w3.org/2000/svg" xmlns:xlink="http://www.w3.org/1999/xlink" viewBox="0 0 486.8 203">
  <defs>
    <style>
      .cls-1 {
        fill: url(#Degradado_sin_nombre_28);
      }

      .cls-2 {
        fill: #fff;
      }

      .cls-3 {
        fill: url(#Degradado_sin_nombre_11);
      }

      .cls-4 {
        fill: url(#Degradado_sin_nombre_25);
      }

      .cls-5 {
        fill: url(#Degradado_sin_nombre_27);
      }

      .cls-6 {
        fill: none;
      }

      .cls-7 {
        fill: #c1c1c1;
      }

      .cls-8 {
        fill: #9e9e9e;
      }

      .cls-9 {
        fill: url(#Degradado_sin_nombre_12);
      }
    </style>
    <linearGradient id="Degradado_sin_nombre_12" data-name="Degradado sin nombre 12" x1="-243.6" y1="2.47" x2="-243.6" y2="142.29" gradientUnits="userSpaceOnUse">
      <stop offset=".09" stop-color="#e2e2e2"/>
      <stop offset=".89" stop-color="#f4f4f4"/>
    </linearGradient>
    <linearGradient id="Degradado_sin_nombre_25" data-name="Degradado sin nombre 25" x1="243.2" y1="2.47" x2="243.2" y2="142.29" gradientUnits="userSpaceOnUse">
      <stop offset=".07" stop-color="#aaa"/>
      <stop offset=".89" stop-color="#c6c6c6"/>
    </linearGradient>
    <linearGradient id="Degradado_sin_nombre_27" data-name="Degradado sin nombre 27" x1="233.33" y1="74.65" x2="233.33" y2="146.71" gradientUnits="userSpaceOnUse">
      <stop offset=".23" stop-color="#d3d3d3"/>
      <stop offset=".69" stop-color="#d5d5d5"/>
      <stop offset=".99" stop-color="#dedede"/>
      <stop offset="1" stop-color="#dfdfdf"/>
    </linearGradient>
    <linearGradient id="Degradado_sin_nombre_11" data-name="Degradado sin nombre 11" x1="-243.36" y1="74.65" x2="-243.36" y2="146.71" gradientUnits="userSpaceOnUse">
      <stop offset="0" stop-color="#c6c6c6"/>
      <stop offset=".28" stop-color="#cbcbcb"/>
      <stop offset=".64" stop-color="#dbdbdb"/>
      <stop offset="1" stop-color="#f3f3f3"/>
    </linearGradient>
    <linearGradient id="Degradado_sin_nombre_28" data-name="Degradado sin nombre 28" x1="183.11" y1="112.75" x2="183.11" y2="157.39" gradientUnits="userSpaceOnUse">
      <stop offset="0" stop-color="#ededed"/>
      <stop offset=".49" stop-color="#f2f2f2"/>
      <stop offset="1" stop-color="#fff"/>
    </linearGradient>
  </defs>
  <path class="cls-9" d="M-54.02,1.81c-24.75-3.64-99.76,25.03-171.76,58.17-54.52,25.09-195.93,58.77-261.42,73.65v26.32H0V18.41C-25.19,9.43-45.36,3.09-54.02,1.81Z"/>
  <rect class="cls-8" width="486.8" height="203"/>
  <path class="cls-4" d="M439.07,151.78s-79.56-63.21-115.67-64.28-111.16,22.74-172.66-7.2C110.77,60.85,46.74,35.07,0,18.41V159.96H486.4l-47.33-8.18Z"/>
  <path class="cls-5" d="M453.65,124.97c-15.64-10.16-33.91,4.51-33.91,4.51,0,0,.31-27.09-23.2-33.86-23.51-6.77-18.51,44.02-18.51,44.02,0,0-6.48-18.06-22.54-21.45-16.06-3.39-29.29,18.62-29.29,18.62,0,0-8.18-31.04-40.31-37.81-32.12-6.77-53.54,22.57-53.54,22.57,0,0-11.14-21.62-33.91-22.57-22.77-.96-30.34,40.63-30.34,40.63,0,0-30.34-31.6-58.9-37.7-28.55-6.09-37.48,23.03-37.48,23.03,0,0-12.49-29.35-30.34-30.48-18.83-1.19-32.22,4.73-40.9,10.96l-.23,54.03,465.88,.48s3.15-24.83-12.49-34.99Z"/>
  <path class="cls-3" d="M-12.16,118.19s-5.97-20.07-28.56-24.83c-16.06-3.39-24.86,8.58-24.86,8.58,0,0,10.58-28.9-26.61-31.84-34.42-2.73-41.57,32.08-42.44,37.29-.03,.43-.1,.65-.1,.65,0,0,.03-.23,.1-.65,.15-2.3-1.03-10.51-22.1-21.92-24.99-13.54-44.62,4.52-46.4,4.52s-12.49-20.32-42.83-21.45c-28.72-1.07-28.65,37.3-28.56,41.4,0,.23,0,.36,0,.36,0,0,0-.13,0-.36-.13-3.18-2.03-26.8-30.33-27.86-44.07-1.64-44.62,46.28-44.62,46.28,0,0-1.78-21.45-17.85-24.83-13.35-2.81-20.53,7.62-21.55,9.28-.17,.32-.17,.28,0,0,.04-.07,.08-.15,.13-.25,1.78-3.39-5.35-20.32-39.26-22.57-20.43-1.36-26.61,12.03-27.7,21.03,1.85,1.99,2.57,4.23,1.82,6.6-1.06,3.37-2.55-.66-1.82-6.6-4.77-5.12-17.05-8.62-31.19-8.62-.11,0-.21,0-.32,0v56.58L.26,159.48l.23-54.03c-8.68,6.22-12.65,12.75-12.65,12.75Z"/>
  <rect class="cls-6" x="310.29" y="153.96" width="12" height="5.54"/>
  <rect class="cls-6" x="323.79" y="153.96" width="13.5" height="5.54"/>
  <rect class="cls-6" x="338.8" y="153.96" width="12" height="5.54"/>
  <rect class="cls-6" x="352.3" y="153.96" width="12" height="5.54"/>
  <rect class="cls-6" x="296.79" y="153.96" width="12" height="5.54"/>
  <rect class="cls-6" x="268.29" y="153.96" width="13.5" height="5.54"/>
  <rect class="cls-6" x="283.29" y="153.96" width="12" height="5.54"/>
  <rect class="cls-7" x="308.79" y="159.5" width="1.5" height=".46"/>
  <rect class="cls-7" x="322.29" y="159.5" width="1.5" height=".46"/>
  <rect class="cls-7" x="337.3" y="159.5" width="1.5" height=".46"/>
  <rect class="cls-7" x="364.3" y="159.5" width="1.5" height=".46"/>
  <rect class="cls-7" x="350.8" y="159.5" width="1.5" height=".46"/>
  <polygon class="cls-7" points="-487.2 159.96 -380.84 159.96 -372.68 159.96 -201.91 159.96 -201.06 159.96 -96.39 159.96 -22.13 159.96 149.78 159.96 210.27 159.96 266.79 159.96 268.29 159.96 268.29 159.5 -487.2 159.5 -487.2 159.96"/>
  <rect class="cls-7" x="295.29" y="159.5" width="1.5" height=".46"/>
  <rect class="cls-7" x="281.79" y="159.5" width="1.5" height=".46"/>
  <path class="cls-8" d="M-22.08,157.65v-.78s.01-15.84,.01-15.84h3.7l-16.9-11.62v-3.42l-4.23-5.03-4.75,5.03v3.42l-16.37,11.62h3.7v16.63h-11.44v-6.64s6.16,.05,6.16-3.65-6.87-16.37-7.92-16.37-7.39,12.02-7.39,16.37c0,3.7,6.34,3.65,6.34,3.65l-.08,6.64h-12.59v-19.27h2.18l-9.05-13.73h-17.43l-10.04,13.73h2.11l.08,19.54h-26.64v-9.76h2.8l-20.07-14.26-21,14.26h3.04v9.76h-23.15l.02-1.06v-15.84h3.7l-16.9-11.62v-3.42l-4.23-5.03-4.75,5.03v3.42l-16.37,11.62h3.7v16.9h-11.44v-6.92s6.16,.05,6.16-3.65-6.87-16.37-7.92-16.37-7.39,12.02-7.39,16.37c0,3.7,6.34,3.65,6.34,3.65l-.09,6.92h-12.59v-19.54h2.18l-9.05-13.73h-17.43l-10.04,13.73h2.11l.08,19.54h-26.64v-17.43h2.8l-20.07-14.26-21,14.26h3.04v17.43h-15.88v-2.43h-3.31v-2.06h-3v-15.82h-13.5v15.13h-1.5v-6.19h-9v6.36h-12v-4.58h-27v-21.74h-15v-2.75h-4.5v2.24h-3v12.38h-2.53v-1.55h-4.97v18.75h-9v-36.81h-6.2v40.63H.41v-1.85s-22.5,0-22.5,0Z"/>
  <path class="cls-1" d="M364.3,149.46v3h-12v-3h-1.5v3h-12v-3h-1.5v3h-13.5v-3h-1.5v3h-12v-3h-1.5v3h-12v-3h-1.5v3h-12v-3h-1.5v3h-13.5v-3h-1.5v4.5h-7.5v-52.5h-3s-3-9-10.5-9-10.5,9-10.5,9h-3v52.5h-21v-20.83l5.03,.02-15.07-21.91-20.63-8.09-20.66,7.9-15.16,21.77,4.98,.02v24.8h-55.22v-24.67c5.57-.59,9.91-5.31,9.91-11.04,0-6.13-4.97-11.1-11.1-11.1s-11.1,4.97-11.1,11.1c0,5.73,4.34,10.44,9.91,11.04v24.67h-11.53v-12.08c2.05-.53,3.57-2.38,3.57-4.59,0-2.63-2.13-4.76-4.76-4.76s-4.76,2.13-4.76,4.76c0,2.21,1.52,4.06,3.57,4.59v12.08h-13.05v-27.04c6.45-.6,11.5-6.02,11.5-12.63,0-7.01-5.68-12.69-12.69-12.69s-12.69,5.68-12.69,12.69c0,6.61,5.05,12.03,11.5,12.63v27.04h-14.15v-8.07c3.15-.56,5.55-3.31,5.55-6.62,0-3.72-3.02-6.74-6.74-6.74s-6.74,3.02-6.74,6.74c0,3.31,2.4,6.06,5.55,6.62v8.07h-9.44v-19.92c4.91-.59,8.72-4.76,8.72-9.83,0-5.47-4.44-9.91-9.91-9.91s-9.91,4.44-9.91,9.91c0,5.07,3.81,9.25,8.72,9.83v19.92H.42v1.85s267.87,0,267.87,0v-5.54h13.5v5.54h1.5v-5.54h12v5.54h1.5v-5.54h12v5.54h1.5v-5.54h12v5.54h1.5v-5.54h13.5v5.54h1.5v-5.54h12v5.54h1.5v-5.54h12v5.54h1.5v-10.04h-1.5Z"/>
  <polygon class="cls-8" points="-22.55 158.96 -96.74 158.96 -201.32 158.96 -202.17 158.96 -372.79 158.96 -380.94 158.96 -487.2 158.96 -487.2 206.5 .4 206.5 .23 158.96 -22.55 158.96"/>
  <polygon class="cls-2" points="487.4 158.5 210.54 158.99 149.89 158.99 .4 158.99 .57 205.5 487.4 205.5 487.4 158.5"/>
</svg>