<?xml version="1.0" encoding="UTF-8"?>
<svg id="Capa_1" data-name="Capa 1" xmlns="http://www.w3.org/2000/svg" xmlns:xlink="http://www.w3.org/1999/xlink" viewBox="0 0 486.8 203">
  <defs>
    <style>
      .cls-1 {
        fill: url(#Degradado_sin_nombre_11-5);
      }

      .cls-2 {
        fill: #fff;
      }

      .cls-3 {
        fill: url(#Degradado_sin_nombre_11-4);
      }

      .cls-4 {
        fill: url(#Degradado_sin_nombre_11);
      }

      .cls-5 {
        fill: url(#Degradado_sin_nombre_11-3);
      }

      .cls-6 {
        fill: none;
      }

      .cls-7 {
        fill: #c1c1c1;
      }

      .cls-8 {
        fill: url(#Degradado_sin_nombre_11-2);
      }

      .cls-9 {
        fill: #9e9e9e;
      }

      .cls-10 {
        fill: url(#Degradado_sin_nombre_12);
      }
    </style>
    <linearGradient id="Degradado_sin_nombre_12" data-name="Degradado sin nombre 12" x1="243.4" y1="2.47" x2="243.4" y2="142.29" gradientUnits="userSpaceOnUse">
      <stop offset=".09" stop-color="#e2e2e2"/>
      <stop offset=".89" stop-color="#f4f4f4"/>
    </linearGradient>
    <linearGradient id="Degradado_sin_nombre_11" data-name="Degradado sin nombre 11" x1="243.64" y1="74.65" x2="243.64" y2="146.71" gradientUnits="userSpaceOnUse">
      <stop offset="0" stop-color="#c6c6c6"/>
      <stop offset=".28" stop-color="#cbcbcb"/>
      <stop offset=".64" stop-color="#dbdbdb"/>
      <stop offset="1" stop-color="#f3f3f3"/>
    </linearGradient>
    <linearGradient id="Degradado_sin_nombre_11-2" data-name="Degradado sin nombre 11" x1="352.33" y1="74.65" x2="352.33" y2="146.71" xlink:href="#Degradado_sin_nombre_11"/>
    <linearGradient id="Degradado_sin_nombre_11-3" data-name="Degradado sin nombre 11" x1="212.49" y1="74.65" x2="212.49" y2="146.71" xlink:href="#Degradado_sin_nombre_11"/>
    <linearGradient id="Degradado_sin_nombre_11-4" data-name="Degradado sin nombre 11" x1="98.08" y1="74.65" x2="98.08" y2="146.71" xlink:href="#Degradado_sin_nombre_11"/>
    <linearGradient id="Degradado_sin_nombre_11-5" data-name="Degradado sin nombre 11" x1="32.27" y1="74.65" x2="32.27" y2="146.71" xlink:href="#Degradado_sin_nombre_11"/>
  </defs>
  <rect class="cls-2" width="486.8" height="203"/>
  <path class="cls-10" d="M432.98,1.81c-24.75-3.64-99.76,25.03-171.76,58.17C206.7,85.08,65.28,118.76-.2,133.63v26.32H487V18.41c-25.19-8.98-45.36-15.32-54.02-16.6Z"/>
  <path class="cls-6" d="M98.14,112.8c-.17,.28-.17,.32,0,0h0Z"/>
  <path class="cls-6" d="M352.38,107.38c-.07,.42-.1,.65-.1,.65,0,0,.07-.22,.1-.65Z"/>
  <path class="cls-6" d="M33.13,117.61c.75-2.37,.03-4.61-1.82-6.6-.72,5.94,.76,9.97,1.82,6.6Z"/>
  <path class="cls-6" d="M212.48,109.93c0,.23,0,.36,0,.36,0,0,0-.13,0-.36Z"/>
  <path class="cls-4" d="M474.84,118.19s-5.97-20.07-28.56-24.83c-16.06-3.39-24.86,8.58-24.86,8.58,0,0,10.58-28.9-26.61-31.84-34.42-2.73-41.57,32.08-42.44,37.29-.03,.43-.1,.65-.1,.65,0,0,.03-.23,.1-.65,.15-2.3-1.03-10.51-22.1-21.92-24.99-13.54-44.62,4.52-46.4,4.52s-12.49-20.32-42.83-21.45c-28.72-1.07-28.65,37.3-28.56,41.4,0,.23,0,.36,0,.36,0,0,0-.13,0-.36-.13-3.18-2.03-26.8-30.33-27.86-44.07-1.64-44.62,46.28-44.62,46.28,0,0-1.78-21.45-17.85-24.83-13.35-2.81-20.53,7.62-21.55,9.28-.17,.32-.17,.28,0,0,.04-.07,.08-.15,.13-.25,1.78-3.39-5.35-20.32-39.26-22.57-20.43-1.36-26.61,12.03-27.7,21.03,1.85,1.99,2.57,4.23,1.82,6.6-1.06,3.37-2.55-.66-1.82-6.6-4.77-5.12-17.05-8.62-31.19-8.62-.11,0-.21,0-.32,0v56.58l487.46,.5,.23-54.03c-8.68,6.22-12.65,12.75-12.65,12.75Z"/>
  <path class="cls-8" d="M352.38,107.38c-.07,.42-.1,.65-.1,.65,0,0,.07-.22,.1-.65Z"/>
  <path class="cls-5" d="M212.48,109.93c0,.23,0,.36,0,.36,0,0,0-.13,0-.36Z"/>
  <path class="cls-3" d="M98.14,112.8c-.17,.28-.17,.32,0,0h0Z"/>
  <path class="cls-1" d="M33.13,117.61c.75-2.37,.03-4.61-1.82-6.6-.72,5.94,.76,9.97,1.82,6.6Z"/>
  <polygon class="cls-7" points="-.2 159.96 106.16 159.96 114.32 159.96 285.09 159.96 285.94 159.96 390.61 159.96 464.87 159.96 636.78 159.96 697.27 159.96 753.79 159.96 755.29 159.96 755.29 159.5 -.2 159.5 -.2 159.96"/>
  <path class="cls-9" d="M464.92,157.65v-.78s.01-15.84,.01-15.84h3.7l-16.9-11.62v-3.42l-4.23-5.03-4.75,5.03v3.42l-16.37,11.62h3.7v16.63h-11.44v-6.64s6.16,.05,6.16-3.65-6.87-16.37-7.92-16.37-7.39,12.02-7.39,16.37c0,3.7,6.34,3.65,6.34,3.65l-.08,6.64h-12.59v-19.27h2.18l-9.05-13.73h-17.43l-10.04,13.73h2.11l.08,19.54h-26.64v-9.76h2.8l-20.07-14.26-21,14.26h3.04v9.76h-23.15l.02-1.06v-15.84h3.7l-16.9-11.62v-3.42l-4.23-5.03-4.75,5.03v3.42l-16.37,11.62h3.7v16.9h-11.44v-6.92s6.16,.05,6.16-3.65-6.87-16.37-7.92-16.37-7.39,12.02-7.39,16.37c0,3.7,6.34,3.65,6.34,3.65l-.09,6.92h-12.59v-19.54h2.18l-9.05-13.73h-17.43l-10.04,13.73h2.11l.08,19.54h-26.64v-17.43h2.8l-20.07-14.26-21,14.26h3.04v17.43h-15.88v-2.43h-3.31v-2.06h-3v-15.82h-13.5v15.13h-1.5v-6.19h-9v6.36h-12v-4.58h-27v-21.74h-15v-2.75h-4.5v2.24h-3v12.38h-2.53v-1.55h-4.97v18.75H6v-36.81H-.2v40.63H487.41v-1.85s-22.5,0-22.5,0Z"/>
  <polygon class="cls-9" points="464.45 158.96 390.26 158.96 285.68 158.96 284.83 158.96 114.21 158.96 106.06 158.96 -.2 158.96 -.2 206.5 487.4 206.5 487.23 158.96 464.45 158.96"/>
</svg>