<?xml version="1.0" encoding="UTF-8"?><svg id="Capa_1" xmlns="http://www.w3.org/2000/svg" xmlns:xlink="http://www.w3.org/1999/xlink" viewBox="0 0 486.75 291"><defs><style>.cls-1{opacity:.1;}.cls-1,.cls-2,.cls-3,.cls-4,.cls-5,.cls-6{fill:none;}.cls-1,.cls-2,.cls-3,.cls-5,.cls-6{stroke:#f6a200;stroke-miterlimit:10;}.cls-1,.cls-2,.cls-5,.cls-6{isolation:isolate;}.cls-2{opacity:.3;}.cls-7{fill:#fff;}.cls-8{fill:url(#Degradado_sin_nombre_4);}.cls-5{opacity:.5;}.cls-9{fill:url(#Degradado_sin_nombre_3);}.cls-10{fill:#9e9e9e;}.cls-11{fill:#c1c1c1;}.cls-12{fill:#ededed;}.cls-6{opacity:.7;}.cls-13{clip-path:url(#clippath);}</style><clipPath id="clippath"><rect class="cls-4" width="1947" height="291"/></clipPath><linearGradient id="Degradado_sin_nombre_3" x1="433.5" y1="295.31" x2="433.5" y2="69.18" gradientTransform="translate(0 292) scale(1 -1)" gradientUnits="userSpaceOnUse"><stop offset="0" stop-color="#d6d6d6"/><stop offset=".44" stop-color="#d8d8d8"/><stop offset=".73" stop-color="#e1e1e1"/><stop offset=".96" stop-color="#f0f0f0"/><stop offset="1" stop-color="#f3f3f3"/></linearGradient><linearGradient id="Degradado_sin_nombre_4" x1="915" y1="99.47" x2="915" y2="46.97" gradientTransform="translate(0 292) scale(1 -1)" gradientUnits="userSpaceOnUse"><stop offset="0" stop-color="#9e9e9e"/><stop offset=".33" stop-color="#a3a3a3"/><stop offset=".75" stop-color="#b3b3b3"/><stop offset="1" stop-color="#c1c1c1"/></linearGradient></defs><g class="cls-13"><rect class="cls-7" width="1947" height="291"/><path class="cls-12" d="M285.97,244.4s-80.48-61.31-112.64-50c-32.16,11.31-53.6,9.67-66.14,12.94-12.53,3.27-36.28,8.34-65.64,25.16-29.36,16.82-34.55,15.48-34.55,15.48h291"/><path class="cls-1" d="M163,173c46.94,0,85-38.06,85-85S209.94,3,163,3s-85,38.06-85,85,38.06,85,85,85Z"/><path class="cls-2" d="M162.5,138c27.34,0,49.5-22.39,49.5-50s-22.16-50-49.5-50-49.5,22.39-49.5,50,22.16,50,49.5,50Z"/><path class="cls-5" d="M163,114c13.81,0,25-11.64,25-26s-11.19-26-25-26-25,11.64-25,26,11.19,26,25,26Z"/><path class="cls-6" d="M162.5,101c7.46,0,13.5-5.82,13.5-13s-6.04-13-13.5-13-13.5,5.82-13.5,13,6.04,13,13.5,13Z"/><path class="cls-3" d="M162.5,94c3.59,0,6.5-2.69,6.5-6s-2.91-6-6.5-6-6.5,2.69-6.5,6,2.91,6,6.5,6Z"/><path class="cls-9" d="M205.22,236.28h-72.62v-24.04h-6.55v-49.46h-8.28v-4.35h-2.07v2.99h-7.72v-9.28h-9.18v-4.46h-17.93v3.3h-8.86v97.02h723v-38.73h-7.5v-10.54h-3.01v10.62h-13.5v-28.57h-13.5v38.75h-25.49v-47.23h-3.01v-13.17h-6v-4.63h-1.5v-5.03h-1.5v-7.46h-3.01v7.35h-1.5v4.79c0,.21-1.5,0-1.5,0v5.57h-1.5v10.65h-5.25v32.09l-2.25,2.24v-41.48h-4.49v-4.43h-16.49v-1.62h-13.5v4.56h-7.5v7.46h-4.49v-22.7h-33.49v9.47h-4.49v27.84h-4.49v27.77h-3.01v-36.7h-9v28.34h-10.49l-1.5-74.1h-3.01v2.99h-3.6v-13.43h-3.88v-5.5h-1.5v-6.84h-1.5v-14.51l-3.01-2.99-6-2.99v7.56h-1.5v14.82h-1.5v5.97h-1.5v5.9h-4.49v-2.92h-4.49v39.78h-4.49l-1.5-4.47h-16.49v4.47h-7.57v29.78l-1.42,1.41v-43.13l-13.5-2.9v-29.94h-19.49v-25.33h-3.01v22.08h-6v4.45h-16.49v37.62h-6v-82.8h-4.49v-13.43h-4.49v-3.78l-6-8.96v-20.9l-3.01-3.42V0h-1.5v18.14l-3.01,2.99v20.9l-6,8.96v4.47h-4.49v13.43h-3.74v124.62l-2.25,2.24v-87.02h-23.99V43.52h-3.02v-11.29h-14.32l-12.65,12.59v49.43h-19.49v114.66h-4.49v-87.86h-1.5v-13.37h-3.01v-18.2h-7.5v-13.27h-11.99v-2.91h-1.46v-7.41h-1.54v10.44h-2.99v2.95h-8.45v10.44h-3.55v17.95h-4.49v16.54h-3.01v58.1h-6v-47.77l-13.5-7.69v-3.42h-6v3.64l-15,5.97v36.43h-3.01v-1.8h-9v-3.28h-4.49v-38.56h-3.01v-3.23h-3.01v-2.19h-3.01v-3.78l-10.49.14v2.85l-4.02.35v5.01h-3.48v5.08l-4.49-.53v105"/><path class="cls-8" d="M1825.49,237.67v2.97h-11.99v-2.97h-1.5v2.97h-11.98v-2.97h-1.5v2.97h-13.48v-2.97h-1.5v2.97h-11.98v-2.97h-1.5v2.97h-11.98v-2.97h-1.5v2.97h-11.98v-2.97h-1.51v2.97h-13.48v-2.97h-1.5v4.44h-7.49v-51.87h-3s-3-8.9-10.48-8.9-10.48,8.9-10.48,8.9h-3v51.87h-20.98v-20.57l5.02.03-15.04-21.64-20.59-7.99-20.63,7.81-15.13,21.51,4.97.03v24.5h-55.13v-24.37c5.56-.59,9.89-5.24,9.89-10.9,0-6.05-4.96-10.96-11.09-10.96s-11.09,4.91-11.09,10.96c0,5.67,4.34,10.31,9.9,10.9v24.37h-11.53v-11.94c2.05-.52,3.56-2.35,3.56-4.54,0-2.6-2.13-4.7-4.75-4.7s-4.76,2.1-4.76,4.7c0,2.19,1.52,4.01,3.56,4.54v11.94h-13.02v-26.71c6.43-.59,11.48-5.95,11.48-12.47,0-6.92-5.67-12.53-12.66-12.53s-12.66,5.61-12.66,12.53c0,6.53,5.04,11.88,11.48,12.47v26.71h-14.14v-7.98c3.16-.55,5.55-3.26,5.55-6.54,0-3.67-3.02-6.66-6.73-6.66s-6.73,2.98-6.73,6.66c0,3.27,2.39,5.98,5.55,6.54v7.98h-9.42v-19.68c4.9-.58,8.71-4.7,8.71-9.71,0-5.4-4.43-9.79-9.9-9.79s-9.89,4.39-9.89,9.79c0,5.01,3.81,9.13,8.71,9.71v19.68h-56.49v-16.42h3.71l-16.88-11.48v-3.38l-4.22-4.96-4.75,4.96v3.38l-16.35,11.48h3.7v16.42h-11.43v-6.56s6.16.05,6.16-3.6-6.85-16.17-7.91-16.17-7.38,11.87-7.38,16.17c0,3.66,6.33,3.6,6.33,3.6l-.09,6.56h-12.58v-19.03h2.19l-9.04-13.57h-17.4l-10.02,13.57h2.11l.09,19.31h-26.61v-9.64h2.8l-20.04-14.08-20.96,14.08h3.03v9.64h-23.12v-1.04l.02-15.65h3.7l-16.88-11.48v-3.38l-4.22-4.96-4.74,4.96v3.38l-16.35,11.48h3.7v16.69h-11.42v-6.83s6.15.05,6.15-3.6-6.85-16.17-7.91-16.17-7.38,11.87-7.38,16.17c0,3.66,6.33,3.6,6.33,3.6l-.09,6.83h-12.56v-19.31h2.18l-9.03-13.57h-17.4l-10.02,13.57h2.11l.08,19.31h-26.6v-17.22h2.79l-20.04-14.08-20.97,14.08h3.03v17.22h-15.84v-2.39h-3.31v-2.04h-3v-15.63h-13.49v14.95h-1.5v-6.12h-8.99v6.28h-11.98v-4.52h-26.96v-21.48h-14.99v-2.72h-4.48v2.21h-3.01v12.24h-2.53v-1.53h-4.96v18.52h-8.99v-36.36h-7.49v-6.97h-7.49v6.12h-11.98v37.38h-18v-18.52h-4.29v3.74h-6.18v14.62h-2.85v-.37h-8.24v-9.79h-13.19v-16.32h-11.55v22.84h-39.58v-2.35h-11.55v-13.28h-16.5v-3.74h-1.65v3.74h-13.19v14h-14.84v-27.74h-13.19v9.8h-24.74v-3.29h-3.29v14.31h-14.84v-20.85h-14.84v21.97h-14.84v-14.03h-19.79v20.02h-3.29v3.04h-6.6v-18.95h-13.19v-28.37h-14.84v35.11h-28.03v-21.51h-23.09v21.89h-6.6v-9.54h-4.95v-16.14l-4.95-4.9-.4-6.72h-1.31v6.65l-4.88,4.83v16.09h-4.95v23.01h-9.9v-38.92h-3.29v-22.07h-3.29v-12.91h-3.29v-10.77l-3.67-8.13v-13.46h-2.93v13.43l-4.95,8.83v10.75h-3.29v13.05h-1.65v22.84h-1.65v27.81h-3.29v-26.17h-18.14v13.26h-6.6v-32.84h-19.79v55.66h-1.65v-70.34h-14.84v-5.05h-8.24v5.05h-6.6v35.89h-3.29v19.58h-16.5v-52.65h-13.19v59.19h-6.6v-27.38h-4.95v-5.25h-14.84v22.84h-6.6v-34.27h-21.08v46.96l-11.9-11.77v-30.29h-13.19v36.84h-4.95v-56.88h-18.14v47.76h-16.5v19.76h-4.95v-32.82h-4.95v32.63h-4.95v-21.51h-6.6v21.51h-8.24v-11.22h-4.8v-39.36h-10.05v38.61h-11.55v-16.28h-21.45v-9.28h-19.79v8.15h-8.24v24.31h-9.9v4.68h-3.29v-2.24h-3.29v-17.22h-14.84v16.46h-1.65v-6.74h-9.9v6.92h-13.19v-4.98h-29.69v-23.64h-16.5v-3h-4.95v2.43h-3.29v13.46h-2.78v-1.68h-5.46v20.39h-9.9v-40.03h-8.24v-7.67h-8.24v6.74h-13.19v41.16h-19.75v-20.39h-4.73v4.11h-6.8v16.09h-3.29v4.79h1726.63v-5.93h13.48v5.93h1.5v-5.93h11.98v5.93h1.5v-5.93h11.98v5.93h1.5v-5.93h11.98v5.93h1.5v-5.93h13.49v5.93h1.5v-5.93h11.98v5.93h1.5v-5.93h11.98v5.93h1.5v-10.37h-1.5v.04Z"/><path class="cls-10" d="M165,88.31c0-.82-.39-1.31-.79-1.31h-.52c-.52,0-.79.49-.66,1.31v16.69h1.97v-16.69Z"/><path class="cls-10" d="M168.1,125h1.9v-2h-2v.29s.1,1.71.1,1.71Z"/><path class="cls-10" d="M154,146v2h3.84l.16-2h-4Z"/><path class="cls-10" d="M170.8,124.93h-.8v2.09c0,.56.4.98.8.98h.4c.53,0,.8-.42.8-.98v-10.05c0-.56-.4-.98-.8-.98h-.53c-.4,0-.67.42-.67.98v6.01h.8v1.95Z"/><path class="cls-10" d="M171,123h-1v2h1v-2Z"/><path class="cls-10" d="M153.33,145.57h.67v-10.57c0-.57-.4-1-.8-1h-.4c-.4,0-.8.43-.8,1v18c0,.57.4,1,.8,1h.4c.53,0,.8-.43.8-1v-5.29h-.67v-2.14Z"/><path class="cls-10" d="M160.69,105c-.23,0-.69.31-.69.77v.46c0,.46.46.77.69.77h2.31v-2h-2.31Z"/><path class="cls-10" d="M166.4,107c.2,0,.6-.31.6-.77v-.46c0-.46-.2-.77-.6-.77h-1.4v2h1.4Z"/><path class="cls-10" d="M165,105h-2v2h2v-2Z"/><path class="cls-10" d="M163.3,205.04c2.43,3.95,4.85,8.03,7.28,11.96h3.41l-2.17-25.2-1.98-22.95-.91-13.37c-.72-.12-1.42-.32-2.07-.59l.54,7.74c-.91-1.97-1.98-4.1-2.89-6.08.3-.83.64-1.6.99-2.37-.65-.4-1.26-.88-1.78-1.43-.19.44-.39.86-.58,1.21-.61-1.67-1.52-3.95-2.43-5.48h.62c-.21-.77-.32-1.59-.32-2.43,0-.26.01-.51.04-.76h-.8c.91-2.58,2.13-5.63,3.04-8.21.24.65.47,1.32.71,2,.41-.4.87-.76,1.35-1.06-.42-1.16-.83-2.32-1.3-3.52.61-1.52,1.22-2.88,1.67-4.25l.33,7.35c.58-.3,1.19-.55,1.82-.73l-.55-11.33h-1.47v-2.12h1.36l-.9-16.27-1.89-.04c-.14.51-.48.8-.84.8h-.46c-.36,0-.72-.39-.84-.86l-2.5-.06-.15,1.67-.32,6.32c.71.11,1.38.32,2.02.62l.14-2.68c.3.91.61,1.82.91,2.58-.07.19-.14.37-.22.57,2.03,1.31,3.41,3.59,3.41,6.13,0,1.57-.54,3.05-1.42,4.25h.97c-.61,1.52-1.37,3.95-1.98,5.48-.29-.97-.7-2.29-1.12-3.52-1.04.64-2.24,1.02-3.51,1.08l-.86,16.28h2.45v2.28h-2.57l-.03.46-.58,8.6c.86.18,1.66.47,2.42.83l.44-6.39c.76,1.52,1.52,3.19,2.28,4.71-.43.87-.83,1.7-1.23,2.52.64.43,1.2.94,1.73,1.48.25-.47.47-.95.72-1.42,1.22,2.58,2.43,5.18,3.65,7.75h-1.44c.04.4.07.8.07,1.21,0,.95-.12,1.86-.36,2.73h1.27c-1.06,1.82-2.13,3.49-3.19,5.33-.17-.25-.32-.52-.48-.79-.55.62-1.19,1.19-1.88,1.67.28.46.55.91.83,1.38-1.37,2.28-2.89,4.55-4.26,7l.61-6.95c-.88.29-1.82.47-2.79.54l-.99,11.74-2.32,26.56h3.87c2.58-3.95,5-8.03,7.43-11.96ZM163.15,113.24c-.3-.76-.61-2.43-.91-3.34h1.98c-.3.91-.61,2.43-1.06,3.34ZM164.06,115.67c.3-.91.61-1.82.91-2.58l.3,5.93c-.46-1.06-.76-2.28-1.22-3.34h0ZM160.72,129.95c.61,1.52,1.06,3.03,1.67,4.4-.76,1.97-1.37,3.95-2.13,5.93l.46-10.33ZM158.44,191.96h9.74c-1.67,2.58-3.19,5.33-4.86,7.91-1.67-2.58-3.34-5.33-4.86-7.91h-.01ZM171.22,213.08c-2.13-3.49-4.26-6.99-6.4-10.49,1.67-2.58,3.19-5.18,4.86-7.91l1.52,18.39h.01ZM167.88,173.11l1.06,12c-1.37-2.28-2.74-4.55-4.1-6.84.91-1.82,1.98-3.49,3.04-5.17h0ZM163.32,180.41c1.67,2.73,3.34,5.63,5.03,8.36h-10.2c1.67-2.73,3.35-5.48,5.17-8.36ZM156.77,194.23c1.67,2.73,3.34,5.33,4.86,8.06-2.13,3.49-4.26,7-6.55,10.49.15.15,1.67-18.54,1.67-18.54h.01Z"/><path class="cls-10" d="M163.79,108h.42c.33,0,.67-.36.78-.93l-2-.07c.13.55.45,1,.78,1h.01Z"/><path class="cls-10" d="M166,125h2l-.13-1.71-.02-.29h-1.85v2Z"/><path class="cls-10" d="M160,146h-2.85l-.15,2h3v-2Z"/><path class="cls-10" d="M171.09,137.71c4.75,0,8.47,3.57,8.47,8.14s-3.71,8.14-8.47,8.14c-.74,0-1.47-.1-2.16-.26l.08,1.11c.53.09,1.07.14,1.63.14,5.2,0,9.36-3.99,9.36-9s-4.15-9-9.36-9c-.92,0-1.81.13-2.64.36l.04.89c.94-.35,1.96-.54,3.03-.54h.01Z"/><path class="cls-10" d="M165,140.18c-.18-.39-.34-.79-.52-1.18-1.97,1.52-3.25,3.63-3.48,6h1.61c.16-1.82,1.02-3.5,2.39-4.84h0Z"/><path class="cls-10" d="M162.91,148h-1.91c.57,1.53,1.68,2.91,3.2,4,.26-.4.52-.82.8-1.25-.93-.81-1.65-1.74-2.09-2.75Z"/><path class="cls-10" d="M167,138.8l-.07-.8c-.33.09-.64.19-.93.29.16.24.33.47.51.71.16-.07.33-.13.49-.2Z"/><path class="cls-10" d="M166.41,153c-.14.41-.28.82-.41,1.23.32.3.65.55,1,.77l-.07-1.53c-.17-.15-.35-.3-.52-.47Z"/><path class="cls-10" d="M166,138.91c-.07-.3-.15-.61-.22-.91-.28.28-.54.59-.78.93.08.35.17.7.25,1.07.22-.4.48-.76.75-1.09Z"/><path class="cls-10" d="M162.59,145.57c0-.19.02-.38.03-.57h-1.57c-.02.23-.05.47-.05.71,0,.79.14,1.56.37,2.29h1.63c-.29-.77-.43-1.58-.43-2.43h.02Z"/><path class="cls-10" d="M164.76,151c-.27.49-.51.98-.76,1.44.69.6,1.46,1.11,2.29,1.56.23-.42.48-.82.71-1.24-.83-.5-1.6-1.08-2.24-1.74h0Z"/><path class="cls-10" d="M167.01,153l.09,1.41c.6.27,1.24.47,1.9.59l-.08-1.18c-.68-.19-1.33-.47-1.92-.82h.01Z"/><path class="cls-10" d="M167.02,139c.3-.41.63-.74.98-1l-.02-1c-.34.19-.67.45-.98.77l.03,1.23h0Z"/><path class="cls-10" d="M167,140l-.16-1c-.28.06-.56.13-.84.19.34.27.66.53,1,.81Z"/><path class="cls-10" d="M169.84,153.73c.66.18,1.34.27,2.06.27,4.54,0,8.1-3.87,8.1-8.5s-3.55-8.5-8.1-8.5c-1.03,0-2.01.2-2.9.57l.49,10.61.36,5.54h-.01Z"/><path class="cls-10" d="M165.07,140c-1.18,1.38-1.93,3.11-2.07,5h4c-.66-1.56-1.31-3.3-1.93-5Z"/><path class="cls-10" d="M163,148c.34,1.12.87,2.14,1.58,3,.46-1.03.95-2.11,1.42-3h-3Z"/><path class="cls-10" d="M166.12,139.22c-.44.36-.85.76-1.21,1.21.56,1.65,1.17,3.33,1.76,4.85h-3.64c-.01.2-.03.39-.03.59,0,.88.13,1.72.35,2.51h2.76c-.45.86-.88,1.86-1.31,2.84.46.6,1.01,1.13,1.62,1.56.18-.39.36-.78.54-1.17l.1,1.58c.6.35,1.26.62,1.95.8l-.36-5.49-.49-10.51c-.6.24-1.17.55-1.69.93l.06,1.46c-.15-.4-.28-.79-.41-1.18h0Z"/><path class="cls-10" d="M162.33,116c.22-.21.45-.41.67-.61-.6-.14-1.24-.27-1.9-.39l-.1.69c.48.1.92.19,1.37.31h-.03Z"/><path class="cls-10" d="M157.7,128.42c-3.49,0-6.41-2.91-6.41-6.42s2.91-6.42,6.41-6.42c.44,0,.86.04,1.27.13l.03-.64c-.33-.05-.66-.08-1.01-.08-3.78,0-6.99,3.06-6.99,7s3.2,7,6.99,7h.23l.04-.62c-.19.01-.37.05-.56.05h0Z"/><path class="cls-10" d="M163,127.24c.07.24.14.49.22.76.69-.52,1.29-1.2,1.78-2h-.91c-.32.46-.67.89-1.09,1.24Z"/><path class="cls-10" d="M165.02,123h.98c-.28-.31-.54-.64-.81-1,0,.05.02.09.02.14,0,.29-.09.57-.21.85h.02Z"/><path class="cls-10" d="M162.65,127.01c-1.34.71-2.91,1.15-4.59,1.27l-.06.71c1.81-.04,3.52-.47,5-1.18-.12-.27-.24-.54-.37-.82h.02Z"/><path class="cls-10" d="M164.05,117.94c.03-.09.06-.2.09-.29.07.23.15.49.21.74.54.96.85,2.1.88,3.31.12.48.26.94.39,1.37h-.47c-.18,1.1-.6,2.1-1.2,2.93h.88c.72-1.17,1.15-2.58,1.15-4.1,0-2.45-1.12-4.64-2.76-5.9-.08.24-.16.48-.24.72.4.35.75.76,1.05,1.22Z"/><path class="cls-10" d="M160.96,116l.04-.57c-.62-.21-1.28-.35-1.97-.43l-.03.45c.7.1,1.35.3,1.96.55Z"/><path class="cls-10" d="M163.98,126h-2.98c.24.29.52.64.78,1,.83-.28,1.56-.62,2.22-1h-.02Z"/><path class="cls-10" d="M163,116.43c-.54-.16-1.08-.31-1.65-.43l-.35,3c.54-.89,1.23-1.71,2-2.55v-.02Z"/><path class="cls-10" d="M164.84,123c.09-.38.16-.75.16-1.14,0-.07-.02-.13-.02-.18-.45-1.06-.9-2.2-1.37-3.23-.14-.16-.31-.3-.47-.45-.74,1.54-1.61,3.51-2.15,5h3.84Z"/><path class="cls-10" d="M158.59,122.97l.41-7.84c-.43-.08-.87-.13-1.32-.13-3.63,0-6.68,2.95-6.68,6.5s3.03,6.5,6.68,6.5c.19,0,.39-.04.58-.05l.18-3.34.15-1.62h0Z"/><path class="cls-10" d="M164,118c.33,1.25.66,2.67,1,4-.04-1.46-.39-2.83-1-4Z"/><path class="cls-10" d="M163.27,125.67c.85-.86,1.47-1.86,1.73-2.99h-3.58c.5-1.55,1.32-3.63,2-5.25-.44-.48-.95-.9-1.52-1.25-.32.71-.61,1.4-.84,2.15l.15-2.53c-.73-.35-1.5-.64-2.34-.79l-.48,7.96-.18,1.65-.21,3.39c1.39-.11,2.68-.5,3.76-1.14-.18-.44-.35-.84-.53-1.2h2.05Z"/><path class="cls-10" d="M154.44,177.72c-5.52,0-9.85-4.79-9.85-10.54s4.32-10.54,9.85-10.54c.88,0,1.71.13,2.52.36l.04-.74c-.73-.16-1.49-.26-2.26-.26-5.97,0-10.74,5.1-10.74,11.5s4.77,11.5,10.74,11.5c.23,0,.46-.01.68-.04l.11-1.3c-.35.04-.72.06-1.08.06h0Z"/><path class="cls-10" d="M163,173.97c.23.35.46.69.69,1.03,1.09-1.13,1.9-2.49,2.31-4h-1.26c-.37,1.11-.97,2.1-1.74,2.97Z"/><path class="cls-10" d="M158.13,176.9l-.13,1.1c1.08-.27,2.09-.64,3-1.11-.23-.29-.48-.59-.72-.89-.66.36-1.38.66-2.15.9Z"/><path class="cls-10" d="M164.95,167h1.05c-.23-2.72-1.19-5.13-2.6-7-.14.34-.27.67-.4,1.01,1.09,1.68,1.79,3.74,1.95,5.99Z"/><path class="cls-10" d="M160.5,159c.16-.32.34-.64.5-.96-.61-.39-1.25-.74-1.93-1.04l-.07,1.04c.54.29,1.04.6,1.5.96Z"/><path class="cls-10" d="M160,175.81c.35.39.71.8,1.06,1.19,1.08-.51,2.05-1.11,2.94-1.76-.37-.41-.76-.82-1.12-1.24-.84.68-1.82,1.28-2.88,1.81Z"/><path class="cls-10" d="M165.27,167.92c0,1.08-.1,2.11-.27,3.08h.79c.13-.88.21-1.82.21-2.77,0-.42-.02-.82-.04-1.23h-.71c.02.31.02.62.02.92Z"/><path class="cls-10" d="M158,177c-.91.37-1.87.62-2.89.72l-.11,1.28c.99-.06,1.95-.24,2.86-.55l.13-1.45h.01Z"/><path class="cls-10" d="M162.35,161c.22-.38.43-.76.65-1.14-.74-.69-1.57-1.32-2.45-1.86-.18.33-.37.66-.55.99.86.59,1.67,1.27,2.35,2.01Z"/><path class="cls-10" d="M158.96,158l.04-.51c-.62-.21-1.28-.39-1.97-.49l-.03.42c.7.13,1.35.33,1.96.58Z"/><path class="cls-10" d="M160,159.06c-.26-.39-.53-.75-.82-1.06l-.18,5c.35-1.34.68-2.65,1-3.94Z"/><path class="cls-10" d="M165,167c-.22-2.25-1.2-4.33-2.73-6-1.12,2.01-2.2,4.01-3.27,6h6Z"/><path class="cls-10" d="M162.63,174c1.05-.87,1.87-1.89,2.37-3h-5c.87,1.02,1.74,2.02,2.63,3Z"/><path class="cls-10" d="M156.24,168.77l.76-11.41c-.84-.23-1.72-.36-2.65-.36-5.81,0-10.35,4.77-10.35,10.5s4.54,10.5,10.35,10.5c.38,0,.77-.03,1.14-.06l.74-8.84v-.32h.01Z"/><path class="cls-10" d="M158.34,173l-.34,4c.72-.31,1.37-.7,2-1.16-.56-.94-1.1-1.86-1.66-2.84Z"/><path class="cls-10" d="M160.4,175.12c.76-.51,1.46-1.08,2.06-1.74-.74-1.12-1.49-2.28-2.25-3.43h4.28c.33-.97.51-2.01.51-3.09,0-.31-.02-.62-.05-.93h-5.41c.96-1.84,1.94-3.68,2.95-5.51-.54-.6-1.18-1.15-1.86-1.63-.51.98-1.04,1.95-1.6,2.96l.29-3.76c-.84-.43-1.75-.77-2.7-1l-.82,11.1v.31l-.81,8.6c1.12-.11,2.17-.35,3.16-.72l.39-4.02c.64.98,1.26,1.91,1.89,2.85h-.05Z"/><rect class="cls-11" y="248" width="1947" height="43"/></g></svg>