<svg width="74" height="146" viewBox="0 0 74 146" fill="none" xmlns="http://www.w3.org/2000/svg">
<path d="M74 0H6C2.68629 0 0 2.68629 0 6V73V140C0 143.314 2.68629 146 6 146H74V0Z" fill="#F6A400"/>
<mask id="mask0_2247_214" style="mask-type:alpha" maskUnits="userSpaceOnUse" x="0" y="0" width="74" height="146">
<path d="M74 0H6C2.68629 0 0 2.68629 0 6V73V140C0 143.314 2.68629 146 6 146H74V0Z" fill="#F6A400"/>
</mask>
<g mask="url(#mask0_2247_214)">
<path d="M46.6486 48.9102C46.6486 52.9727 45.7697 56.4883 44.0119 59.457C42.2932 62.3867 39.9885 64.7891 37.0978 66.6641C34.2463 68.5391 31.1213 69.9453 27.7228 70.8828V71.2344C34.5588 72.0938 39.8322 74.1836 43.5432 77.5039C47.2932 80.7852 49.1682 85.4531 49.1682 91.5078C49.1682 96.1953 47.9182 100.492 45.4182 104.398C42.9182 108.266 39.0314 111.371 33.758 113.715C28.4846 116.02 21.7072 117.172 13.426 117.172C7.87909 117.172 3.15253 116.762 -0.753719 115.941C-4.65997 115.121 -8.44903 113.988 -12.1209 112.543V93.3242C-8.40997 95.2383 -4.60138 96.6641 -0.695126 97.6016C3.25019 98.5 6.84394 98.9492 10.0861 98.9492C15.7111 98.9492 19.5392 98.1484 21.5705 96.5469C23.6408 94.9453 24.676 92.7969 24.676 90.1016C24.676 88.1484 24.1877 86.4883 23.2111 85.1211C22.2346 83.7539 20.4182 82.6992 17.7619 81.957C15.1447 81.2148 11.3752 80.8438 6.45331 80.8438H1.17987V63.4414H6.5705C10.9455 63.4414 14.4025 63.0508 16.9416 62.2695C19.5197 61.4883 21.3752 60.4336 22.508 59.1055C23.6408 57.7383 24.2072 56.1758 24.2072 54.418C24.2072 52.1523 23.3283 50.4727 21.5705 49.3789C19.8127 48.2852 17.4885 47.7383 14.5978 47.7383C12.0197 47.7383 9.59784 48.0898 7.33222 48.793C5.06659 49.4961 3.09394 50.2773 1.41425 51.1367C-0.265438 51.9961 -1.53497 52.6992 -2.39434 53.2461L-12.0037 37.7773C-8.44903 35.3555 -4.38653 33.3047 0.183781 31.625C4.79316 29.9453 10.8088 29.1055 18.2307 29.1055C27.0588 29.1055 33.9924 30.8633 39.0314 34.3789C44.1096 37.8945 46.6486 42.7383 46.6486 48.9102Z" fill="url(#paint0_linear_2247_214)"/>
</g>
<defs>
<linearGradient id="paint0_linear_2247_214" x1="-37" y1="95.7844" x2="46.76" y2="150.707" gradientUnits="userSpaceOnUse">
<stop stop-color="white"/>
<stop offset="1" stop-color="white" stop-opacity="0.4"/>
</linearGradient>
</defs>
</svg>
