<svg width="75" height="146" viewBox="0 0 75 146" fill="none" xmlns="http://www.w3.org/2000/svg">
<path d="M75 0H7C3.68629 0 1 2.68629 1 6V73V146H75V0Z" fill="white"/>
<mask id="mask0_2247_219" style="mask-type:alpha" maskUnits="userSpaceOnUse" x="0" y="0" width="75" height="146">
<path d="M75 0H6.5C3.18629 0 0.5 2.68629 0.5 6V73V140C0.5 143.314 3.18629 146 6.5 146H75V0Z" fill="white"/>
</mask>
<g mask="url(#mask0_2247_219)">
<path d="M49.3533 117H-12.8147V101.766L8.10331 80.6133C12.4393 76.082 15.7986 72.4492 18.1814 69.7148C20.6033 66.9805 22.3025 64.6562 23.2791 62.7422C24.2557 60.8281 24.7439 58.8359 24.7439 56.7656C24.7439 54.2266 23.9236 52.3906 22.283 51.2578C20.6424 50.125 18.7088 49.5586 16.4822 49.5586C13.7869 49.5586 11.0525 50.3398 8.27909 51.9023C5.54472 53.4258 2.43925 55.6914 -1.03731 58.6992L-13.7522 43.8164C-11.174 41.5117 -8.43966 39.3242 -5.54903 37.2539C-2.65841 35.1445 0.759563 33.4258 4.70488 32.0977C8.65019 30.7695 13.4549 30.1055 19.1189 30.1055C24.9393 30.1055 29.9783 31.1211 34.2361 33.1523C38.533 35.1836 41.8533 37.9766 44.1971 41.5312C46.5408 45.0469 47.7127 49.0508 47.7127 53.543C47.7127 58.5039 46.7947 62.9375 44.9588 66.8438C43.1619 70.7109 40.4471 74.5977 36.8143 78.5039C33.1814 82.3711 28.6502 86.7656 23.2205 91.6875L16.951 97.3125V97.8984H49.3533V117Z" fill="url(#paint0_linear_2247_219)"/>
</g>
<defs>
<linearGradient id="paint0_linear_2247_219" x1="-28" y1="96.7844" x2="49" y2="139" gradientUnits="userSpaceOnUse">
<stop stop-color="#F6A400"/>
<stop offset="1" stop-color="#FDDD9C" stop-opacity="0.6"/>
</linearGradient>
</defs>
</svg>
