<svg width="94" height="146" viewBox="0 0 94 146" fill="none" xmlns="http://www.w3.org/2000/svg">
<path d="M94 0H10.2096C5.63188 0 2.74037 4.92019 4.96783 8.91948L39.0323 70.0805C40.0432 71.8956 40.0432 74.1044 39.0323 75.9195L4.96784 137.081C2.74038 141.08 5.63188 146 10.2096 146H94V0Z" fill="white"/>
<mask id="mask0_2222_226" style="mask-type:alpha" maskUnits="userSpaceOnUse" x="4" y="0" width="90" height="146">
<path d="M94 0H10.2096C5.63188 0 2.74037 4.92019 4.96783 8.91948L39.0323 70.0805C40.0432 71.8956 40.0432 74.1044 39.0323 75.9195L4.96784 137.081C2.74038 141.08 5.63188 146 10.2096 146H94V0Z" fill="white"/>
</mask>
<g mask="url(#mask0_2222_226)">
<path d="M94.5486 128H11.658V107.688L39.5486 79.4844C45.3299 73.4427 49.809 68.599 52.9861 64.9531C56.2153 61.3073 58.4809 58.2083 59.783 55.6562C61.0851 53.1042 61.7361 50.4479 61.7361 47.6875C61.7361 44.3021 60.6424 41.8542 58.4549 40.3438C56.2674 38.8333 53.6893 38.0781 50.7205 38.0781C47.1268 38.0781 43.4809 39.1198 39.783 41.2031C36.1372 43.2344 31.9965 46.2552 27.3611 50.2656L10.408 30.4219C13.8455 27.349 17.4913 24.4323 21.3455 21.6719C25.1997 18.8594 29.757 16.5677 35.0174 14.7969C40.2778 13.026 46.684 12.1406 54.2361 12.1406C61.9965 12.1406 68.7153 13.4948 74.3924 16.2031C80.1215 18.9115 84.5486 22.6354 87.6736 27.375C90.7986 32.0625 92.3611 37.401 92.3611 43.3906C92.3611 50.0052 91.1372 55.9167 88.6893 61.125C86.2934 66.2812 82.6736 71.4635 77.8299 76.6719C72.9861 81.8281 66.9445 87.6875 59.7049 94.25L51.3455 101.75V102.531H94.5486V128Z" fill="url(#paint0_linear_2222_226)"/>
</g>
<defs>
<linearGradient id="paint0_linear_2222_226" x1="7" y1="64.7844" x2="84" y2="107" gradientUnits="userSpaceOnUse">
<stop stop-color="#F6A400"/>
<stop offset="1" stop-color="#FDDD9C" stop-opacity="0.6"/>
</linearGradient>
</defs>
</svg>
