<svg width="94" height="146" viewBox="0 0 94 146" fill="none" xmlns="http://www.w3.org/2000/svg">
<path d="M94 0H10.2096C5.63188 0 2.74037 4.92019 4.96783 8.91948L39.0323 70.0805C40.0432 71.8956 40.0432 74.1044 39.0323 75.9195L4.96784 137.081C2.74038 141.08 5.63188 146 10.2096 146H94V0Z" fill="#F6A400"/>
<mask id="mask0_2222_217" style="mask-type:alpha" maskUnits="userSpaceOnUse" x="4" y="0" width="90" height="146">
<path d="M94 0H10.2096C5.63188 0 2.74037 4.92019 4.96783 8.91948L39.0323 70.0805C40.0432 71.8956 40.0432 74.1044 39.0323 75.9195L4.96784 137.081C2.74038 141.08 5.63188 146 10.2096 146H94V0Z" fill="#F6A400"/>
</mask>
<g mask="url(#mask0_2222_217)">
<path d="M89.8869 40.5469C89.8869 45.9635 88.715 50.651 86.3713 54.6094C84.0796 58.5156 81.0067 61.7188 77.1525 64.2188C73.3504 66.7188 69.1838 68.5938 64.6525 69.8438V70.3125C73.7671 71.4583 80.7984 74.2448 85.7463 78.6719C90.7463 83.0469 93.2463 89.2708 93.2463 97.3438C93.2463 103.594 91.5796 109.323 88.2463 114.531C84.9129 119.688 79.7307 123.828 72.6994 126.953C65.6682 130.026 56.6317 131.562 45.59 131.562C38.1942 131.562 31.8921 131.016 26.6838 129.922C21.4754 128.828 16.4234 127.318 11.5275 125.391V99.7656C16.4754 102.318 21.5536 104.219 26.7619 105.469C32.0223 106.667 36.814 107.266 41.1369 107.266C48.6369 107.266 53.7411 106.198 56.4494 104.062C59.2098 101.927 60.59 99.0625 60.59 95.4688C60.59 92.8646 59.939 90.651 58.6369 88.8281C57.3348 87.0052 54.9129 85.599 51.3713 84.6094C47.8817 83.6198 42.8557 83.125 36.2932 83.125H29.2619V59.9219H36.4494C42.2827 59.9219 46.8921 59.401 50.2775 58.3594C53.715 57.3177 56.189 55.9115 57.6994 54.1406C59.2098 52.3177 59.965 50.2344 59.965 47.8906C59.965 44.8698 58.7932 42.6302 56.4494 41.1719C54.1057 39.7135 51.0067 38.9844 47.1525 38.9844C43.715 38.9844 40.4859 39.4531 37.465 40.3906C34.4442 41.3281 31.814 42.3698 29.5744 43.5156C27.3348 44.6615 25.6421 45.599 24.4963 46.3281L11.6838 25.7031C16.4234 22.474 21.84 19.7396 27.9338 17.5C34.0796 15.2604 42.1004 14.1406 51.9963 14.1406C63.7671 14.1406 73.0119 16.4844 79.7307 21.1719C86.5015 25.8594 89.8869 32.3177 89.8869 40.5469Z" fill="url(#paint0_linear_2222_217)"/>
</g>
<defs>
<linearGradient id="paint0_linear_2222_217" x1="-3" y1="66.7844" x2="80.76" y2="121.707" gradientUnits="userSpaceOnUse">
<stop stop-color="white"/>
<stop offset="1" stop-color="white" stop-opacity="0.4"/>
</linearGradient>
</defs>
</svg>
